<?xml version="1.0" encoding="UTF-8"?>
<svg id="Layer_1" xmlns="http://www.w3.org/2000/svg" version="1.1" viewBox="0 0 424.58 352.98">
  <style>
    path { fill: #050506; }
    @media (prefers-color-scheme: dark) {
      path { fill: #f7f7f3; }
    }
  </style>
  <!-- Generator: Adobe Illustrator 30.5.1, SVG Export Plug-In . SVG Version: 2.1.4 Build 3)  -->
  <g>
    <path d="M234.54,346.54c.39.48.38.85.45,1.12.3.27.65.34,1.49.68l-2.4,1.22c.17.77.73.73.95.67.11-.15.32-.74.94-.42-.77.74-1.19,1.23-1.6,2.28-1.01-.24-1.33-.6-1.86-1.29l-1.39,1.08c-.45.04-.66.25-.83.35l-.78-.57c-1.18.63-2.2.1-2.57-.64.64-1.26-.37-2.51-1.69-2.34.17.69.65,1.01,1.22,1.49-.6,1.02-1.26,1.5-2.22,1.73-1.15.16-2.09.24-3.19,0l-3.23-.09c-1.28.33-2.52.6-3.8.19-.59.19-1.24.21-1.96-.09-.58.2-.98-.13-1.12-.36-.14-.41-.1-.76.19-1.16-.77,0-.96-.16-1.29-.54-.37-.33-.79-.17-.9.15-.02.15-.05.72.67.87.22.46-.11.92-.42,1.02-.31.1-.78.23-1.35-.24-.68.33-1.32.42-2.03.26-1.47.56-2.83.5-4.28.03-.58.26-1.16.4-1.8.01-.35.19-.8.3-1.03.27-.67-.1-1.06-.66-1.02-1.45l.33-2.5.05-4.16c.25-.61.2-1.16-.13-1.77.38-.77.51-1.51.05-2.36.19-.27.51-.74.29-1.32l.16-7.92c-.23-1.77-.32-3.43-.1-5.26-.71-1.11-.79-2.4-.3-3.68l-.06-10.04.12-21.78.12-3.33c-.25-.72-.1-1.39.01-2.09-.4-.6-.34-1.25.29-1.78-.23-.94-.39-1.72-.23-2.64v-9.48s-.26-3.02-.26-3.02c.44-.57.42-1.28-.04-1.84-.03-1.63.03-2.98.42-4.68-.37-.73-.61-1.53-.14-2.24l-.34-4.04.21-10.77.35-19.8-.15-6.36c.16-2.29.31-4.45-.17-6.65-.28-.4-.13-.87.37-1.15-.36-1.08-.25-1.79,0-2.71l-.27-5.12c-.4-.39-.19-.85.09-1.19l.26-10.56-.21-33.72.22-9.42c-.1-1.37-.29-2.79.03-4.3l-.13-3.71c.18-1.45.3-2.75-.02-4.17.46-1.32.57-2.57,0-3.95.19-.29.45-.76.24-1.36l.34-4.13c.22-.76-.04-1.78-.31-2.73.2-.99.1-1.76-.35-2.62.65-1.01.59-2.14-.1-3.17.57-1.63.37-3.1.02-4.73-.14-.77-.12-1.38.36-2.13-.64-1.21-.75-2.41-.02-3.56-.15-1.43-.15-2.96-.04-4.45-.44-2.07-.02-4.04-.01-6.19-.25-.53-.3-1.04-.14-1.6-.26-1.48-.3-2.85.43-4.22-.5-.85-.51-1.75.01-2.62-.18-.58-.16-1,.11-1.61-.68-.69-.74-1.49-.23-2.25-.43-.74-.31-1.6.41-2.17.45-.55.51-1.45-.31-1.92l-.5-2.6c.39-.87.55-1.63.71-2.69-.64-1.49-.76-3.05-.31-4.66.11-1.16.08-2.16-.31-3.2-.36-.93-.1-1.74.24-2.34l-.11-2.43c.36-1.2.55-2.37.06-3.63.23-.95.13-1.82-.22-2.67l-.05-10.55c-.15-.68-.24-1.34.22-2.09l-.24-2.1c.27-1.99.3-3.83-.19-5.79.47-1.64.37-3.13.04-4.73-.1-1.31-.03-2.45.4-3.7-.47-2.02-.4-3.92.1-5.82-.66-1.68-.45-3.4-.24-5.27.17-1.62.48-3.09.14-4.75.28-.72.32-1.33.24-2.1-.51-1.01-.53-2.07-.12-2.97-.38-.74-.43-1.42-.26-2.33l-.59-.8c.05-.4.21-.79.63-1.25-.37-.73.26-1.25.84-1.03l4.83-.06c.28,0,.53.16.62.53h8.71c.21-.58.7-.67,1.15-.51l5.42-.09c.34.4.77.7,1.2.62.42.06.89-.13,1.21-.78l.9.77c.15-.23.41-.49.74-.55l5.17.04c.28.74,1,.33.99-.22.83.33.84.59,1.01.74.49.14.95-.35,1.13-.48,1.43.06,2.11.16,2.99.9l-.27,2.26c.65.59.68,1.43.03,2-.17,1.7.01,3.15.23,4.78l-.11,2.63.05,15.3c-.13,1.43-.19,2.77.06,4.22-.23,1.08-.27,2.06-.02,3.18-.14,1.42-.47,2.76-.22,4.21.21,1.4-.18,2.68-.29,4.01.52.53.43,1.15.12,1.67-.14.84-.05,1.42.38,2.19l-.37,3.19c.44,1.04.39,2.09-.04,3.16.35.8.26,1.47-.16,2.14l.38,8.93-.03,6.36-.41,24.2.27,8.79-.25,6.53c.12,1.25.13,2.42-.21,3.66.35.93.33,1.77-.08,2.66.34,1.98.5,3.78.32,5.8-.41.68-.37,1.41.05,2.1-.42,2.53-.38,4.87-.08,7.37v4.85s-.55,1.19-.55,1.19c.13.37.36.79.84,1.2-.38,3.55-.6,6.99-.44,10.73-.11.87-.26,1.68.05,2.6-.39.55-.34,1.05-.1,1.57-.22,1.24-.19,2.45.1,3.68l.18,4.09c.45.54.31,1.26-.31,1.61-.4.37-.52.96.15,1.42-.32.58-.46,1.23.01,1.89l-.02,4.07c-.69.51-.66,1.36-.08,1.86l.07,4.6-.04,3.68-.11,4.24.13,4.6c-.57.51-.62,1.3.03,1.87-.34,1.06-.51,2.09-.11,3.14.37,1.3.34,2.64-.11,4.07.27.54.33,1.02.13,1.59-.07,1.07-.14,2.1.16,3.17l.15,8.78c.24.91-.16,1.75-.38,2.82.62.29.75.83.19,1.2.16.54.27,1.26-.22,1.97.3,2.11.39,4.15.17,6.3l.03,8.24c-.52.7-.24,1.55.23,2.25-.18,1.19-.35,2.12-.02,3.26-.26,1.92-.25,3.77,0,5.76-.38.87-.42,1.74.05,2.67-.23.61-.27,1.2.2,1.76-.43.5-.34,1.25-.02,1.65l-.18,5.17c.2.48.1.97-.26,1.39l.44.82-.5.77c.19,1.29.37,2.45.15,3.71l.1,8.96-.13,2.12-.08,4.74v3.12c-.62,1.05-.4,2.13.2,3.18l-.03,5.31c-.36,1.24-.31,2.4-.13,3.67,0,1.81.33,3.49-.1,5.29l.43,6.49c.25.64.15,1.44-.25,2.14.08,1.47.35,2.91.11,4.54-.08.91-.16,1.69.18,2.65-.43.67-.53,1.35-.18,2.09-.15.78.05,1.35.88,1.74-.39.54-.6,1.11-.35,1.98-.87.54-.66,1.36-.33,1.81-.36,1.03-.01,1.81.09,2.74-.63.39-.56,1.02-.07,1.4-.31,1.36-.34,2.6-.2,4.02-.43.73-.33,1.42-.04,2.1-.6.75-.58,1.27-.44,2.22-1.19-.03-1.51.73-1.29,1.33.66,0,.88.26,1.05.44.18.47.08,1.05-.4,1.43-.15.65.15,1.03.78,1.05.22,1.09.13,1.96-.29,2.92.38.33.51.68.59.91-.19.32-.54.59-1.14.39-.43.55-.23,1.16.37,1.52l.55.72c-.18.1-.41.44-.16.77ZM220.8,2.35l-.26.26.26.26h.53l.26-.26-.26-.26h-.53ZM213.13,3.38c.09-.5-.49-.73-.77-.51-.22.15-.53.51-.12,1.05l.89-.55ZM223.43,2.88l-.26.26.26.26.26-.26-.26-.26ZM233.98,4.98l-.26.26v.53l.26.26.26-.26v-.53l-.26-.26ZM230.29,108.83l-.26.26.26.26.26-.26-.26-.26ZM230.29,109.88l-.26.26.26.26.26-.26-.26-.26ZM225.29,134.56c.75.44,1.4-.2.95-.95-.42.1-.85.54-.95.95ZM225.54,135.71l-.26.26.26.26.26-.26-.26-.26ZM229.35,140.67c.01-.84.21-1.26.41-1.74-.14-.63-.32-.86-.55-1.05-.13-.19-.95-.16-.66.61-.41.27-.79.68-.72,1.18.2.15.45.32.72.8-.27.42-.09.77.15.9.13-.01.59-.12.65-.69ZM233.45,161.54l-.26.26.26.26.26-.26-.26-.26ZM213.68,331.99l-.89-.75c-.45.56-.11.94.1,1.08.29.17.71,0,.79-.34ZM219.3,334.58c-.25-.52-.69-.9-1.42-.57.28.65.78,1.01,1.34.96l.08-.39ZM229.91,336.48c.3-.6.17-1.02-.16-1.45-.13-.26-.5-.61-1.23-.39.01.84.52,1.52,1.39,1.84ZM219.79,334.94l-.06.55c.7.42,1.08-.72.06-.55ZM200.77,337.6l-.26.26.26.26.26-.26-.26-.26ZM206.57,337.6l-.26.26.26.26.26-.26-.26-.26ZM204.46,338.12l-.26.26.26.26.26-.26-.26-.26ZM200.24,340.76l-.26.26.26.26h.53l.26-.26-.26-.26h-.53ZM220.44,342.9c.15.59.64.6.88.49.29-.16.41-.49.27-.8-.19-.22-.45-.43-1.07-.25.18-.62-.03-.88-.25-1.07-.2-.19-.89-.08-.72.58l-.67.94,1.56.1ZM203.73,342.99c.55-.22.56-.65.47-.91-.15-.29-.5-.41-.8-.27-.21.18-.41.51-.26,1.12-.08.48.52.58.58.06ZM206.82,342.78c-.1-.42-.54-.85-.95-.95-.44.75.2,1.4.95.95ZM222.91,342.87l-.26.26.26.26.26-.26-.26-.26ZM223.76,344.45c0-.33-.26-.59-.59-.59s-.59.26-.59.59.26.59.59.59.59-.26.59-.59ZM231.35,347.56c.66-.42,1.05-.87,1.4-1.58-1.08-.04-1.5.51-2.17,1.31-1.05-.8-1.09-1.84-.63-2.92-.18-.49-.87-.66-1.18.07-.41-.15-.78-.25-1.46.05-.43,0-.39.43-.19.51.19.23.38.39.85.5.45-.32,1.02-.02.84.61.42.61.65,1.31.06,2.14-1.32-.56-1.28,1.32-.05.83.55.59,1.03.64,1.42.23-.66-.94-.11-2.04,1.12-1.74ZM199.98,346.38c1.22-.15,1.39-1.16.82-1.94-.34.57-.76,1.21-.82,1.94ZM220.47,347.34c-.06-.81-.45-1.1-.28-1.32l.91-.65c-.22-.79-1.04-1.07-1.77-.5.44.87-.23,1.43-1.04,1.05-1.08-.51-1.11,1.19,0,.56l2.18.85ZM226.33,347.05c.07-1.2-.58-1.36-.96-1.56-.33.86.25,1.47.96,1.56ZM221.32,346.56l-.43.26.43.26.26-.26-.26-.26ZM227.12,346.56l-.26.26.26.26h.53l.26-.26-.26-.26h-.53ZM204.69,348.98c0-.41-.34-.75-.75-.75s-.75.34-.75.75.34.75.75.75.75-.34.75-.75ZM207.71,349.2c-.51-.61-.9-.56-1.15-.54-.29.16-.4.5-.27.8.17.21.5.44,1.1.21.35.16.6-.22.32-.47ZM221.32,348.67l-.26.26.26.26.26-.26-.26-.26ZM214.73,350.31c.15-.61-.04-.94-.26-1.12-.3-.14-.64-.02-.8.27-.09.27-.08.69.47.91.06.52.66.42.58-.06ZM224.08,349.06c-1.05,0-1.05.74-.9,1.17-.05.62.55.71.78.55.26-.17.38-.53.29-.93.68-.18.44-.88-.18-.79Z"/>
    <g>
      <path d="M169.69,351.8c-1.33.26-2.23-.11-3.11-.25-.12-.47-.39-.63-.6-.73l-.8.73c-.83-.49-1.63-.44-2.25.14-1.15-.06-2.1.05-3.22.59-.64-.37-1.45-.51-2.36-.38l-.55-.89c-.36-.25-.86-.3-1.26.18l-3.39.17c-.66.67-1.6.49-2.19-.13-.78.23-1.15-.16-1.4-.44-.52.73-1.15.72-1.8.44-.71.81-1.43.68-2.15.06-.71.67-1.51.7-2.01.25-.69-.48-.89-1.5.06-2.36-.62-.66-.76-1.26-.66-2.08l.04-5.27-.17-4.22c-.18-.78-.29-1.55-.07-2.23.1-.82.21-1.59.02-2.58.29-.87.31-1.76-.3-2.36.63-.52.53-1.19.22-1.69.58-.88.28-1.51.01-2.12-.25-.96-.11-1.7.67-2.38l-.32-.68c-.16-.45.07-.87.58-1.13-.61-.96.12-1.64.93-1.66.74.09.71-.79.04-.74-.6.26-.94.25-1.38.17l-.71-1.27c.4-.45.59-1.13.05-1.86.52-.73.5-1.4.09-2.11.43-1.1.44-2.08.01-3.17.35-.54.34-1.05,0-1.57.37-.97.11-1.75-.1-2.42.32-1.5.5-2.85.24-4.47.17-.87.18-1.7-.07-2.59.47-.81.16-1.47-.25-1.89.53-.79.49-1.48.4-2.33.07-1.05-.11-1.89-.36-2.85.48-1.06.53-2.28-.08-3.48.47-.67.46-1.33.16-2.07.13-1.08.21-1.88-.1-2.88l.42-1.33c-.54-.73-.37-1.4-.24-1.96l-.02-5.68c-.21-.44-.16-.94.19-1.41-.47-1.58-.43-3.07-.08-4.52l-.44-4.46c.42-.42.56-1.01-.02-1.52l.39-6.03c-.32-.65-.39-1.45.09-2.18-.57-.41-.59-1.03,0-1.45-.25-.88-.32-1.61-.08-2.45l-.44-2.69c.46-.86.55-1.7.24-2.62-.27-.87-.2-1.69.02-2.56l-.08-7.41-.09-8.29c.69-.7.36-1.53-.12-2.17.22-1.59.16-2.75-.05-4.15-.37-.28-.5-.62-.5-.94.05-.25.09-.63.73-1.02-.79-1.12-1.04-2.33.14-3.46-.68-1.1-.67-2.09-.24-3.12l.14-6.41c-.49-.51-.59-1.15-.31-1.73.33-.81.16-1.62-.28-2.44.63-1.05.54-2.07.09-2.95.49-1.09.47-2.23.12-3.36.4-.74.34-1.41.11-2.12l.03-10.36c-.33-.46-.33-.99,0-1.45-.32-.55-.28-1.26.14-1.85l-.16-2.18-.14-18.1c.03-1.87.28-3.64-.14-5.58.33-.74.35-1.41.03-2.15.28-.57.35-1.16.06-1.75l-.05-7.16c.26-.89.09-1.74-.04-2.65-.08-1.31-.17-2.45.14-3.68l-.17-6.9c.28-1.39.15-2.76.02-4.16l-.1-6.88c.32-1.05.27-2.1-.02-3.15l-.02-7.92v-5.27c.22-.66.1-1.24-.4-1.74.52-1.08.56-2.27.19-3.47.49-1.91.38-3.58-.2-5.37.46-.8.68-1.63.26-2.61-.09-.55-.06-1.01.17-1.56-.43-.7-.4-1.37-.1-1.94-.51-.76-.35-1.53.03-2.31-.4-1.72-.2-3.24-.16-4.9-.13-2.06.31-4.03-.31-6.17.31-.88.33-1.7,0-2.57.6-.71.44-1.49-.01-2.12.25-2.08.29-3.79.16-5.87-.19-.37-.41-.64-.83-1.06.64-1.21.94-2.3.73-3.66-.22-.7-.14-1.28.36-1.88l5.32-.03c.4.46,1.03.65,1.67.28.72-.39,1.45-.37,2.18-.02.63.33,1.26.22,1.68-.33l8.3.03c1.59-.31,3.14-.16,4.73,0l5.83-.25c2.13.24,4.16.45,6.35-.03,1.04.2,2.06.12,2.91-.26,1.08.58,2.17.45,3.36.36,1.06-.1,1.78.05,2.33,1.09-.3.69-.46,1.36-.23,2.13-.2,1.06-.23,2.07.01,3.12l.07,7.4-.13,3.68c.3,1.12.07,2.14-.3,2.98.63,1.25.52,2.62-.07,3.67.86,1.15.69,2.32.73,3.57-.12,2.38-.19,4.64.07,7.01-.23.61-.2,1.17.03,1.76-.17.62-.29,1.19,0,1.85-.38.65-.41,1.48-.07,2.15-.04,1.21.04,2.19-.37,3.36l.42,4.45c-.26.71-.42,1.58.12,2.48-.33,1.22-.43,2.34-.26,3.65-.21.75-.08,1.39.18,1.9-.62.92-.35,1.87.05,2.65-.74,1.09-.79,2.21-.07,3.33-.51.73-.54,1.39-.05,2.14-.45.85-.58,1.7-.33,2.61.36,1.08.42,2.03.41,3.06-.41.51-.51,1.03-.42,1.71.68,1.76.59,3.49-.06,5.18.59.94.53,1.85.13,2.73l.3,2.47c-.32.4-.24.84.13,1.24-.44,1.45-.41,2.74.02,4.17l-.21,4.42c0,.8-.31,1.61.12,2.45-.44,1.23-.45,2.31-.33,3.74.13.45.32.96-.26,1.57.32.75.2,1.45-.44,2.05l1.07,2.37c-.4.39-.61,1.05-.2,1.66.14.92.08,1.71-.16,2.72.53.44.6,1.08.19,1.68l.08,6.15c-.37.57-.24,1.14.1,1.61-.56.23-.62.74-.35,1.09.57.68.52,1.58-.29,2.25.49,1.54.76,2.96.39,4.38-.4,1.18-.35,2.42.23,3.72-.04.26-.33.56-.42.63-.18.5-.1.97.42,1.4-.13,1.01-.38,1.76-.06,2.78-.2.42-.56,1.06-.14,1.7v4.73s.19,3.31.19,3.31l-.11,7.64-.55,1.08c-.03.51.19.97.65,1.39l-.06,3.13c.82.7.91,1.79,0,2.59.23.5.16.91-.27,1.23.43.89.52,2.01-.26,3.01.4,1.38.51,2.66.51,4.03-.49.71-.38,1.46-.28,2.24l.14,5.16c.23,1.45-.02,2.89-.24,4.3l.4,6.07c-.09.95-.4,1.92.03,2.96-.24.69-.3,1.38.25,2.11-.36.7-.41,1.41.13,2.11-.03.92,0,1.74.45,2.63l-1.1,2.42c.34.62.26,1.2-.02,1.82.31,2.23.65,4.33.06,6.5l.22,6.49c-.3.53-.37,1.09-.13,1.71-.69.62-.43,1.31.18,1.67-.09,1.31-.2,2.31.26,3.7-.3.93-.5,1.98-.21,3.07l.15,5.83c.11.87.11,1.71-.04,2.58l.18,3.19c-.39.73-.32,1.42-.01,2.09l-.21,6.75c-.74.47-.53,1.27-.03,1.65.01.87.11,1.43-.12,2.19l.37,7.55.05,7.97c-.25.62-.63,1.37-.26,2.42-.47.48-.48,1.03-.12,1.56-.12.95-.06,1.66.14,2.64-.63.46-.59,1.12.06,1.51.21.67.1,1.1-.12,1.58.37.94.1,1.63-.48,2.34.61.8.71,1.87.42,2.97.4,1.28.36,2.43.04,3.7.25.56.12,1.02-.2,1.41-.4.2-.44.75.24.8l.08,4.11c-.29.58-.33.81-.24,1.68-.44-.37-1.06.11-.52.58-.21.55-.49,1.31.46,2.06-.24.37-.71.68-1.42.64-.95.27-.37,1.4.46.84.88-.45,1.54.19,1.28,1.02.2.53-.14.9-.45.99-.21.05-.58.05-.93-.27-.17-.35-.44-.5-.63-.56-.25.13-.41.37-.4.88-.91-.3-1.63-.46-2.52.14-.73-.34-1.39-.23-2.03.04l-3.78-.1c-.88.04-1.72.14-2.61-.3-.87.41-1.72.38-2.86.25ZM150.16,59.28l-.26.26.26.26.26-.26-.26-.26ZM181.79,75.62l-.26.26.26.26.26-.26-.26-.26ZM142.78,158.9l-.26.26.26.26.26-.26-.26-.26ZM183.9,173.14l-.26.26.26.26.26-.26-.26-.26ZM181.79,188.95l-.26.26v.53l.26.26.26-.26v-.53l-.26-.26ZM143.31,227.43l-.26.26.26.26h.53l.26-.26-.26-.26h-.53ZM183.9,248.51l-.26.26.26.26.26-.26-.26-.26ZM144.89,250.09l-.26.26.26.26.26-.26-.26-.26ZM180.21,251.15l-.26.26.26.26.26-.26-.26-.26ZM183.9,253.26l-.26.26.26.26.26-.26-.26-.26ZM146.47,319.15l-.26.26.26.26h.53l.26-.26-.26-.26h-.53ZM146.76,321.05c.3.42.71,0,.3-.3l-.3.3ZM147.47,321.76l.3-.3c-.3-.42-.71,0-.3.3ZM149.11,321.78l-.26.26v.53l.26.26.26-.26v-.53l-.26-.26ZM150.16,328.11l-.26.26v.53l.26.26.26-.26v-.53l-.26-.26ZM156.63,330.89c.66-.27.65-.67.63-.9-.09-.21-.21-.48-.65-.85-.41-.38-1.14.23-.42.71-.22.53-.7.87-1.5.9.1.69.55.84.82.95.39.15,1.02.06,1.13-.81ZM144.89,329.69l-.26.26.26.26.26-.26-.26-.26ZM149.11,332.85l-.26.26.26.26.26-.26-.26-.26ZM150.94,333.7l-.85,1.27,2.11,1.41.85-1.27-2.11-1.41ZM175.71,333.88c-.99-.44-1.3.82-.11.63.58.16.78-.56.11-.63ZM156.49,334.43l-.26.26.26.26.26-.26-.26-.26ZM155.43,334.96l-.26.26.26.26.26-.26-.26-.26ZM173.36,337.07l-.26.26v.53l.26.26.26-.26v-.53l-.26-.26ZM177.05,337.07l-.26.26.26.26.26-.26-.26-.26ZM152.27,337.6l-.26.26.26.26.26-.26-.26-.26ZM167.93,340.72c.21-.51-.68-1.08-1.07-.25-.71.07-1.06-.27-1.28-.5-.06-.33-.1-.75.2-1.34-.18-.55-.47-.87-1.11-.94.04.7.04,1.19-.15,1.87-.53.16-.61.64-.48.94.19.21.59.41,1.1.22.89.52,1.34,1,1.96,1.62l.81-1.62ZM182.07,340.49c-.17-.64,0-1.23.51-1.6.38-.29.81-.35,1.63-.26-.28-.57-.47-.84-1.26-1.24-.5.72-.93,1.43-2.3,1.27.02.69.51,1.6,1.14,2.09l.28-.26ZM171.05,340.23c0-.33-.26-.59-.59-.59s-.59.26-.59.59.26.59.59.59.59-.26.59-.59ZM178.34,341.26c.09-.5-.49-.73-.77-.51-.22.15-.53.51-.12,1.05l.89-.55ZM182.27,341.27l.3-.3c-.3-.42-.72,0-.3.3ZM145.95,342.87l-.26.26.26.26.26-.26-.26-.26ZM167.27,343.9c.09-.5-.49-.73-.77-.51-.22.15-.53.51-.12,1.05l.89-.55ZM165.71,344.37c-.07-.6-.94-.78-1.2.06.15.45.7.72,1.2-.06ZM172.3,343.92l-.26.26.26.26.26-.26-.26-.26ZM183.09,345.2c-.08-.91-.78-.73-1.12-.52-.19.16-.34.44-.23.83-.13.49.26.74.57.67.23-.02.76-.15.77-.98ZM179.39,345.53l-.89-.55c-.41.55-.1.91.12,1.05.27.22.86,0,.77-.51ZM170.72,345.5l-.26.26.26.26.26-.26-.26-.26ZM180.76,347.55c.41-.39-.27-.86-.55-.47-.24.17-.45.47-.24,1.02-.8-.03-1.11.15-1.6.85.34.38,1.15.43,1.57,0,.33-.25.52-.66.81-1.39ZM169.67,347.61l-.26.26v.53l.26.26.26-.26v-.53l-.26-.26ZM177.08,349.6c.71-.52-.06-1.52-.8-.66-.54-.73-.92-.83-1.34-.87-.32-.1-.79-.03-.87.67l1.42,1.07c.09-.24.24-.43.55-.54.25-.02.59,0,1.05.33ZM149.64,348.67l-.26.26.26.26h.53l.26-.26-.26-.26h-.53ZM167.02,350.25l.8-.79-.8-.79c-.42.38-.42,1.2,0,1.58ZM172.3,349.19l-.26.26.26.26h.53l.26-.26-.26-.26h-.53ZM181.79,349.72l-.26.26.26.26.26-.26-.26-.26Z"/>
      <path d="M152.85,47.75c-1.01.21-1.39-.34-1.91-.58-.64-.21-.75-.89-.49-1.53-1.61,0-2.63-.73-3.6-1.79-.96-.27-1.53-.94-1.82-1.77-2.91-2.52-4.58-5.81-5.3-9.51-.35-.68-.11-1.44.16-2.05-.75-.48-.82-1.12-.51-1.81-.21-.57-.27-.97.1-1.63.82.4,1.23,1.05,1.07,1.98.44.05.73.16,1.31-.39-.83-.39-.98-.84-.73-1.58.19-.46-.1-.89-.54-.84-.15,0-.51-.09-1.02.3-.36-1.05-.43-2.43.3-3.66-.04-1.52.44-2.84,1.1-4.18-.16-.82.28-1.41.87-1.76.35-1.14.9-2.08,1.74-2.99l1.9-2.34c1.39-.51,2.14-1.53,3.49-2.43.52-.67.92-1.73,2.06-2.05.72-.65,1.49-1.19,2.59-1.11,1.25-.9,2.62-1.21,4.25-.99,1.31-.96,2.85-1.25,4.36-.77l3.52.54c3.33.45,6.15,2.05,8.88,3.97,2.04,1.13,3.46,2.87,4.62,4.8l2.43,2.5c-.22.77-.15,1.57.55,1.97.57.96.68,2.11.97,3.13.7,1.18.68,2.48.65,3.85-.14,1.09-.21,2.07-.01,3.09-.44,1.08-.63,2.12-.44,3.1,0,2.04-.9,3.99-1.85,5.92l-2.13,3.74-3.07,3.15c-.72.2-1.12.66-1.5,1.15-.47.44-.97.58-1.59.53-2.22,2.03-4.95,3.29-8.1,3.07-2.83.81-5.76.95-8.48-.54-.64-.07-1.35-.15-1.8-.51-.63.53-1.29.4-1.99,0ZM171.78,8.15l-.26.26.26.26.26-.26-.26-.26ZM141.97,23.98l-.89-.55c-.41.55-.1.91.12,1.05.27.22.86,0,.77-.51ZM180.38,38.08c.26-.58.16-1.17-.15-1.48l-.8.8c.18.2.29.47.96.68ZM146.76,42.73c.3.42.71,0,.3-.3l-.3.3ZM147.47,43.44l.3-.3c-.3-.42-.71,0-.3.3ZM173.36,43.99l-.26.26.26.26.26-.26-.26-.26ZM170.72,45.57l-.26.26.26.26.26-.26-.26-.26ZM168.61,46.1l-.26.26.26.26.26-.26-.26-.26Z"/>
    </g>
    <g>
      <path d="M278.57,351.62c.37.44.19,1.06-.35,1.21-.3-.42-.71-.38-.93-.04-1.79.12-3.52.26-5.11-.1.65-1.92-1.78-1.8-1.08.08l-16.19.13c-.08-.41-.36-.53-.56-.51-.2.74-1.06.73-1.26-.02l-3.94.02c-.39.67-1.14.63-1.7.16-.75.43-1.24.06-1.39-.18-.4-.41-.48-.97-.14-1.5.47-.14.46-.65-.09-.73l-.05-6.24c0-.86.12-1.68-.16-2.61.4-.88.55-1.74-.03-2.7.29-.81.33-1.67,0-2.52.45-.88.28-1.62-.22-2.3.5-1.27.69-2.62.19-4.05.4-.93.38-1.72-.02-2.69.47-.59.45-1.27-.15-1.72.19-.36.42-.83.36-1.38l-.09-4.05c-.62-.69-.52-1.61.22-2.29-.33-.78-.31-1.39-.02-2.1l.02-4.2c.48-1.26.25-2.49-.33-3.68l.68-2.46c-.84-1.59-.68-3.25-.38-4.93-.42-.93-.31-1.8.13-2.65v-6.35c-.41-.49-.41-1.07,0-1.56l-.45-3.19c.56-.94.43-1.85-.29-2.55.98-1.57.75-3.15.55-4.8-.13-1.31-.07-2.45.27-3.66-.46-.61-.38-1.05-.37-1.66.25-.89.36-1.69-.17-2.63.33-.9.43-1.66.11-2.66.36-.31.5-.55.58-.75-.07-.19-.2-.44-.51-.74.45-.86.18-1.47,0-2.08l.1-6.81c.64-.04.66-.7.04-.78l-.09-3.55c-.31-.56-.18-1.08.15-1.54-.73-.84-1.01-1.6-.88-2.48.6-2.15.82-4.23.57-6.55.36-.67.44-1.35.25-2.07.35-.59.21-1.11-.12-1.56l.28-3.8c-.13-.83-.23-1.68.05-2.55-.38-1.28-.27-2.44-.29-3.7l.1-5.82c-.31-.73-.27-1.33-.17-2.12.16-.71.26-1.34-.18-2.09.43-.73.36-1.37.25-2.08l.18-6.36-.21-11.64c.11-.76.3-1.51-.31-2.26l.57-1.37c-.58-1.75.14-3.32.02-4.83l-.23-15.74v-3.15c-.23-1.29-.02-2.46.09-3.66l-.13-6.37c-.11-.72-.02-1.39.14-2.09l-.13-7.39.19-9.86c.28-.99.15-2.06.15-2.98-.46-1.28-.28-2.59-.18-4.01-.4-1.08-.39-2.13-.04-3.17v-11.07c-.31-.71-.09-1.42-.05-2.08.07-1.2.02-2.08-.4-3.03.47-.46.65-1.09.21-1.77.28-.7.26-1.36,0-2.05l.17-5.33.03-33.66c.28-.58.18-1.11-.02-1.59.35-.61.26-1.12-.18-1.62.56-1.25.46-2.45.02-3.67l.25-2.69c.05-.71-.19-1.38-.42-2.04.38-.84.1-1.41-.72-1.83.72-.66,1.1-1.32.96-2.45,0-.95.68-1.65,1.72-1.5.68-.38,1.38-.45,2.11.21.8-.53,1.57-.44,2.17.1l5.2-.31c.82.39,1.7.47,2.42.04.8.58,1.65.51,2.42.06l2.5-.1c.68.5,1.38.39,1.92-.03.43.39.74.47,1.24.5.74-.56,1.54-.63,2.3-.14.7-.44,1.45-.46,2.5-.5.83.16,1.65.36,2.58.2.93.23,1.72.09,2.6-.16,1.13.93,2.48.92,3.69.3.81.14,1.42-.06,2.11-.28.86.19,1.48-.16,1.94-.48,1.28.94,2.35.97,3.74.79.47-.24.93-.34,1.42-.18.42.2.84.65.97,1.34.21.37.44.66.97.65.41-.07.75.37.46.82.04-.01-.33.36-.64-.16-.33-.63-1.13-.15-.74.41.01.77-.35,1.41-.55,1.93.56,1.68.57,3.29-.08,5.02-.12,1.9-.02,3.81-.63,5.57-.64.45-.43,1.3.19,1.56.54.74.37,1.55-.2,2.06.5.45.66.81.74,1.25.31,2.21.32,4.16-.03,6.31.05.37.15.65.27.83-.1.19-.23.41-.64.77.51.86.3,1.55-.6,2.09,1.31,1.2,1.56,2.49.95,3.93.27.48.46,1.15.26,1.91l-.02,10.39c-.29.38-.22.85.22,1.22-.51,1.15-.53,2.09-.16,3.18l-.17,6.68-.09,6.83c.29.59.27,1.22-.22,1.75-.27,1.01-.07,1.9.46,2.75-.16,1.08-.07,1.93-.58,3.14.25.38.46.89.04,1.52.48.84.53,1.72.06,2.59.21.95.18,1.75-.12,2.63.24.65.06,1.13-.55,1.55.49.47.56.67.65.9.06.38-.2.81-.47,1.17-.05.99-.03,1.65.55,2.32.57,1.41.58,3.01.34,4.62l-.05,9.89c-.05.94.43,1.94-.12,2.94.31,1.26.35,2.64-.2,4.01.56,1.15.4,2.11-.02,3.19-.16.72-.09,1.25.52,1.76-.24.65-.51,1.21-.2,1.96-.11,1.08-.22,2.04.1,3.2-.67,1.16-.98,2.42.01,3.64-.63.73-.57,1.39-.16,2.08v8.99c-.51.78-.35,1.63.2,2.24-.34,1.94-.36,3.69-.14,5.68-.22.88-.3,1.74-.12,2.62l.07,10.35c.29,1.27.02,2.52-.15,3.69.51.88.17,1.67.24,2.45.06.43-.1.89-.37,1.41.48,1.48.32,2.77.11,4.05.55.75.48,1.58-.12,2.35.4.91.51,1.7.27,2.58.23,1.22.2,2.37-.09,3.7.22.55.19,1.05-.16,1.58.42,1.1.25,2.11-.01,3.13v6.37s-.01,10.01-.01,10.01l.05,9.49-.12,13.55c-.33.53-.39,1.06-.41,1.74-.09.71-.02,1.39.2,1.96.31.86.27,1.78.08,2.78.27.74.27,1.38.24,2.11l-.22,12.83c.21.63.04,1.27-.11,1.74.42,1.35.29,2.57.01,3.95.05,1,.33,1.94.04,2.96.23,1.34.15,2.64.04,3.96l.26,3.01-.39,2.09c.34.72.42,1.45-.18,2.18.36,1.07.36,2.04-.11,3.12.41.52.41,1.07.02,1.58.25.99.12,1.74-.27,2.45.69.39.72,1.15.21,1.71.18,1.27.16,2.33-.15,3.36-.44.54.13,1.1.44,1.27l-.13,4.41c.5.49.5,1.03.19,1.57.27.54.35,1.06-.12,1.64l.32,2.8c-.22.67-.45,1.48.05,2.43-.35,1.09-.43,2.07-.1,3.14l-.11,3.21c-.06.33-.36.68-.91.4-.27.3-.09.81.48.88.4.79.48,1.46.14,2.45.79.94.55,1.96-.46,2.45-.96-.14-1.59-.04-2.61.13.16-.99.22-1.62-.4-2.4-.8.53-.82,1.17-.46,1.98-.63.76-1.58.52-1.98-.1-.6.66-1.23.52-1.84.26-.62.49-1.08.16-1.26-.02-.15-.38-.13-.86.41-1.3-.22-.55-.65-.49-.91-.22-.67.26-1.19.14-1.69.02l-.21.51ZM270.08,58.3c-.5-.78-1.05-.51-1.2-.06.26.84,1.13.65,1.2.06ZM264.02,58.22l-.26.26.26.26h.53l.26-.26-.26-.26h-.53ZM270.87,58.75l-.26.26.26.26.26-.26-.26-.26ZM261.39,59.28l-.26.26.26.26.26-.26-.26-.26ZM276.15,61.39l-.26.26.26.26h.53l.26-.26-.26-.26h-.53ZM250.15,65.98c.37.4.83.17.96-.11.16-.28.02-.7-.35-.8-.27.31-.42.47-.61.91ZM276.03,70.36c.43-.1.54-.54.39-.81-.19-.24-.48-.4-1-.27-.07-.83-1.15-.77-1.06.06-.3.28-.64.75-.33,1.02.12.14.3.48.82.5-.19-.6.02-.84.25-1.04.24-.07.73-.11.94.55ZM264.28,74.53c.07-1.2-.58-1.36-.96-1.56-.33.86.25,1.47.96,1.56ZM284.05,86.16l-.26.26.26.26.26-.26-.26-.26ZM253.48,103.03l-.26.26.26.26.26-.26-.26-.26ZM287.21,127.8l-.26.26.26.26.26-.26-.26-.26ZM255.06,130.44l-.26.26.26.26h.53l.26-.26-.26-.26h-.53ZM271.4,131.49l-.26.26.26.26h.53l.26-.26-.26-.26h-.53ZM276.67,132.55l-.26.26.26.26.26-.26-.26-.26ZM248.73,141.51l-.26.26.26.26h.53l.26-.26-.26-.26h-.53ZM278.25,141.51l-.26.26.26.26h.53l.26-.26-.26-.26h-.53ZM280.36,144.67l-.26.26.26.26.26-.26-.26-.26ZM288.8,179.46l-.26.26v.53l.26.26.26-.26v-.53l-.26-.26ZM286.16,187.89l-.26.26.26.26.26-.26-.26-.26ZM284.58,192.11l-.26.26.26.26.26-.26-.26-.26ZM284.74,198.29l-.61-.91c-.37.09-.51.51-.35.8.13.28.59.51.96.11ZM269.82,200.55l-.26.26.26.26.26-.26-.26-.26ZM269.82,208.98l-.26.26v.53l.26.26.26-.26v-.53l-.26-.26ZM252.06,227.28l-.61-.91c-.37.09-.51.51-.35.8.13.28.59.51.96.11ZM256.64,243.24l-.26.26.26.26.26-.26-.26-.26ZM281.42,245.35l-.26.26.26.26.26-.26-.26-.26ZM257.7,248.51l-.26.26.26.26.26-.26-.26-.26ZM286.16,250.62l-.26.26.26.26.26-.26-.26-.26ZM261.39,259.58l-.26.26.26.26.26-.26-.26-.26ZM247.68,263.27l-.26.26v.53l.26.26.26-.26v-.53l-.26-.26ZM269.29,263.8l-.26.26.26.26h.53l.26-.26-.26-.26h-.53ZM250.11,265.91c0-.33-.26-.59-.59-.59s-.59.26-.59.59.26.59.59.59.59-.26.59-.59ZM262.15,275.74c-.1.81.63.85.82.71.29-.16.4-.49.26-.8-.09-.25-.71-.62-1.09.08ZM249.26,282.78l-.26.26.26.26.26-.26-.26-.26ZM248.7,286.98c1.1-.61,1-1.59.6-2.08-1.1.61-1,1.59-.6,2.08ZM259.28,330.74l-.26.26.26.26.26-.26-.26-.26ZM281.94,335.49l-.26.26.26.26.26-.26-.26-.26ZM248.21,341.81l-.26.26.26.26.26-.26-.26-.26ZM278.78,343.92l-.26.26v.53l.26.26.26-.26v-.53l-.26-.26ZM286.47,348.81c.5-.03.87-.06,1.07-.65-.7.13-.91-.07-1.13-.28-.05-.25-.03-.73.56-1.07.24-1.13-1.35-1.11-1.08.01-.55.52-.8.73-1.09,1.27.61-.17,1.08.01,1.13.7-.51.88.83,1.19.53.01ZM281.42,347.61l-.26.26.26.26.26-.26-.26-.26ZM284.32,348.97c.3-1.17-1.4-1.19-1.08.05.06.7.54,1.04.94,1.26.17-.44.19-.74.14-1.31ZM278.49,351.02c-.22-.32-.44-.78-1.06-1.05-.62.26-.43.72-.25.84.28.38.69.5,1.06.49l.26-.29ZM260.33,350.77l-.26.26.26.26.26-.26-.26-.26Z"/>
      <path d="M264.83,45.32l.43.57c.48.51.25,1.16-.41,1.38-.83-.23-1.46,0-1.91.25-.85-.34-1.62-.34-2.27-1.02-.9-.25-1.43-.8-1.41-1.65-.88.39-1.22.35-1.84.28l-2.42-1.81c-.11-.9-.81-1.42-1.64-1.54l-2.32-2.47c.06-.72-.19-1.14-.53-1.59.7-.31.86-.26,1.18-.3.13-.11.34-.31.37-.7-.45-.19-.91-.29-1.57.13-1.34-.9-1.82-2.25-2.15-3.77l-.73-2.43c.18-1.24-.12-2.36-.54-3.27.2-1.59.42-2.93.9-4.41-.3-.95-.21-1.83.09-2.55l1.28-3.45c.73-.57.96-1.32.99-2.12.63-.29.78-.81.66-1.43,1.08-1.22,1.89-2.25,3.19-2.94.73,1,1.61-.08.89-.7.17-.81.64-1.36,1.31-1.65,1.95-1.37,3.93-2.28,6.18-2.78,1.02-.55,2.08-.74,3.19-.37.43-.74.94-1.04,1.71-1.17,2.65-.14,5.12.2,7.55,1.01,2.44.42,4.64,1.24,6.62,2.98-.16.36-.47.68-.82,1.01-.31.5-.18.94.34,1.19.14.1.72.15.99-.57l2.57.31,3.26,3.67c.25.63.82,1.06,1.3,1.44-.1,1.03.19,1.51.73,2.21l-.67,1.68,1.75,1.64c.02,1.4.19,2.67.76,4.1-.24.73-.17,1.4.16,2.07.02,1.32-.07,2.45-.3,3.57-.46.47-.45,1.12-.15,1.76-.72,1.04-1.26,1.95-1.32,3.13-.06,1.44-.87,2.63-1.79,3.58-.04.81-.66,1.16-1.09,1.53-.86,1.68-2.05,2.69-3.43,3.83l-.42-1.05c-.58-.31-1.22-.27-1.43.56.4.34.56.59.66.8.04.24-.06.67-.5.8l-1.75,1.43c-.84.12-1.47.36-2.15,1.16-.68-.51-1.56-.63-2.49.2-.59-.57-.81-.91-1.57-1.29l.02,1.34c-.09.19-.49.64-1.09.22-.79.52-1.58.78-2.64.56-.62.66-1.4.64-2.02.07-1.14.12-1.8-.63-2.1-1.49.75-.53.91-1.14.7-1.89-.81-.35-1.42-.35-2.05-.32l-.26.26ZM281.16,11.75c.75.44,1.4-.2.95-.95-.42.1-.85.54-.95.95ZM283,12.36l-.26.26.26.26.26-.26-.26-.26ZM252.42,15l-.26.26.26.26.26-.26-.26-.26ZM287.74,18.16l-.26.26.26.26h.53l.26-.26-.26-.26h-.53ZM288.27,34.5l-.26.26.26.26h.53l.26-.26-.26-.26h-.53ZM255.59,41.88l-.26.26.26.26.26-.26-.26-.26ZM260.33,42.94l-.26.26.26.26.26-.26-.26-.26ZM264.89,44.74c.1-.29-.05-.56-.34-.63-.27.09-.45.26-.55.41-.27.35.06.79.48.67l.42-.45Z"/>
    </g>
  </g>
  <path d="M397.67,57.43c.23-.56.68-1.04,1.57-.84.97.23,1.64.27,2.72-.3.25.85.88,1.02,1.36.86.18-.97,1.12-1.06,1.68-.33,1.09-.75,2-.51,2.79.29-.78.83.16,1.76.99.94.84.74,1.15,1.69.74,2.86.45.61.92.28,1.09-.04.24-.25.01-.78-.54-.97-.09-.81.96-1.16,1.29-.31.55.39.91-.81-.04-.68-.17-.57-.3-.85-.57-1.22-.06-.45.05-.73.33-.95l.71.33c.72-1,1.86-1.17,2.91-.64.68.18,1.2-.14,1.51-.74.67-.26,1.16.11,1.02.85.55.2.82.22,1.41.18-.06.6-.03.9.21,1.42.65-.35,1.16-.55,2.04-.41l.79-.48c.41-.14.88-.03,1.17.55l-.35,2.51c.46,2.48.52,4.8.19,7.23l.2,4.35c-.47.73-.55,1.54-.09,2.28l.1,7.23.03,7.42c.02.63-.25,1.31.17,2.1-.33.88-.43,1.63-.12,2.65-.54.49-.66,1.18-.2,1.72l.28,2.51c-.54.57-.61,1.43.06,2.03-.28.97-.25,1.76.06,2.65-.33,1.29-.27,2.39-.02,3.72-.36.68-.47,1.3-.14,2.11-.48.49-.48,1.02-.16,1.54-.34.72-.27,1.35,0,1.97-.4.27-.59.74-.09,1.27l-.72.71c.04.15.06.47.49.82-.21,1.15-.06,2.12.34,3.18-.01.6-.17,1.02-.57,1.51.69.9.64,1.66.76,2.71-.17.86-.16,1.67-.1,2.6-.02.75.06,1.36-.2,2.12.19,1.08.36,2.07.05,3.19.15.92.07,1.77-.38,2.52.75,1.23.76,2.52.29,3.73l.27,2.16-.27,14.62c-.01,1.28.38,2.54-.14,3.83.2.59.31,1.14-.03,1.82.39.48.49,1.24-.21,1.82l.53.84-.65.96c.77.31,1.08,1.16.54,1.79-.32,1.39-.37,2.83-.16,4.21-.85.26-.7,1.1-.19,1.37.06.65.14,1.27.45,1.94-.3.91-.36,1.73.05,2.68-.39.49-.44,1.04.12,1.52-.27.97-.15,1.74.05,2.63l-.18,4.75c.43.47.09,1.03-.41,1.17.47.7.46,1.31-.02,2.04.3,1.08.4,1.99.27,3.14.12.62.14,1.08-.67,1.73.9.38,1.14,1.37.46,2.14.26,1.1.39,2.1.15,3.17-.42.17-.6.4-.75.61.14.21.3.45.74.6.23.95.29,1.84-.26,2.88.65.89.49,1.99-.5,2.81.94.78,1.16,1.56,1.08,3.04-.08.66-.63,1.43-.07,2.28-.35.37-.64,1.02-.39,1.66.39.35.48.63.61,1.34-.52.72-.78,1.64-.12,2.54-.31.78-.25,1.3.29,2.14-.96.24-1.08,1.36-.14,1.59.29.3-.06,1.21-.73,1.48.05.79.24,1.09.72,1.6-.18.87-.45,1.26-1.38,1.79l1.45,1.39c-.31.73-.44,1.28-.39,2.02-.63.98-.79,2.07-.11,3.09v3c-.31.62-.18,1.23-.12,1.92.23,1.31.2,2.43-.16,3.45.63.78.35,1.56.39,2.34l-.38,4.77c.36.53.46,1,.04,1.66.36.72.19,1.81-.62,2.11-1.17-.84-1.25,1.13-.06.44,1,.06,1.32,1.43.47,2.02.76.82.53,1.42.02,2.12.71.75.58,1.49,0,2.15.42.88.62,1.52.21,2.37.31.47.47,1.18-.04,1.87.37.55.4,1.03-.04,1.62.61.65.55,1.36.03,1.86.7.5.64,1.18.2,1.72.48.69.16,1.12-.17,1.45.38.43.48.72.57.99-.04.27-.07.61-.67.93l.52.7c.11.43-.15.85-.6,1.19.67,1.75.62,3.05.19,4.69.5.25.6.68.36,1.08-.59.3-.66,1,.02,1.41-.36.52-.61,1.02-.52,1.92.52.6.62,1.4-.04,2.09.7,1.43.74,2.79.22,4.18-.03.44.11.8.66.95.3.43-.07.87-.61.68-.05.93.17,1.32.49,2.01-.44.9-.1,1.47.35,1.97-.68.45-.83,1.11-.21,1.82-.42.46-.64.9-.13,1.61.66-.68,1.28.45.4.54-.76.18-.92,1.58,0,2.25-.41.17-.74.75-.32,1.26.55.37,0,.96-.5.62-.18,1.03.06,1.29.79,1.79-1.03.85-1.41,2.05-.91,3.48-.78.62-.67,1.47,0,2.01-.66.82-.49,1.46-.18,2.05-.54.23-.6.6-.54.94.19.12.42.34.53.81-.43.85-.5,1.79.24,2.61-.54.72-.41,1.33.31,1.86-.47.42-.84,1.09-.1,1.87-.46.73-.36,1.39.12,1.97-1.09.89-1.38,1.98-.93,3.25.4.86.42,1.73.02,2.52.76.66.79,1.65-.18,2.4.54,1.31.83,2.57.6,4.03.59.68.42,1.44,0,1.95.6.24.53.64.23.92-.31.37-.33.77-.17,1.1.29.27.8.61,1.72.1.24.58.06,1.02-.14,1.61.46.37.4.7.37.91-.09.3-.47.55-.92.3-.48.12-.67.29-.85.5-.23.07-.22.71.34.51.64.17.79,1-.1,1.35.28.44.9.49,1.35-.23.35.55.43,1.19.1,2.11-.43-.33-.7-.62-1.59-.83-.38,1-.05,1.62.72,2.18-1,.6-1.19,1.36-.93,2.29-.39.83-.06,1.52.38,2.09l-.09,3.72c-.09.42-.29.68-.43.82-.32.21-.81.29-1.24-.19l-2.45.3-5.45.06c-.15.43-.72.81-1.03.12h-2.92c-.22.73-1.08.73-1.3-.03l-6.01.04c-.79.83-2.02.76-2.8-.29-.55.68-.89.78-1.33.78-.46.09-.83-.16-1.08-.55-.39.8-1.12.68-1.4.11-.73-.33-1.38-.12-1.77.42-.37-.78-1.14-.73-1.41-.03l-2.9-.02c-.61-.64-1.44-.67-2.23-.37-.61.02-.93-.24-1.08-.38-.16-.36-.22-.79.03-1.29l-.04-2.66c.31-.72.24-1.38.03-2.08l-.12-8.26c-.69-.73-.54-1.73-.07-2.48l.07-2.97.06-4.23v-7.91c.03-1.71.12-3.3-.36-4.95.46-1.23.42-2.64-.28-3.9l.49-3.12c-.3-.96-.21-1.89.02-2.85l-.05-6.07-.02-4.45c.09-1.23.35-2.4-.06-3.65.34-.78.06-1.43,0-1.93l.28-12.92c-.15-.83-.57-1.72-.06-2.6l.18-6.3-.11-4.7-.32-6.02c.26-1.04.27-2.23-.06-3.31.48-1.29.03-2.52-.1-3.64.59-1.9.23-3.6.18-5.49.27-.91.27-1.74-.01-2.64.27-1.1.21-2.05.2-3.17-.2-1.1-.16-2.1.35-3.13-.54-.73-.58-1.38-.39-2.08-.38-.77-.28-1.45.03-2.17l.07-13.2c.02-.86.21-1.72-.15-2.61l.19-3.68c.46-.52.44-1.07.07-1.6l.16-2.65c-.36-.75-.19-1.4.18-1.87-.68-1.31-.4-2.53-.21-3.89.12-1.3.12-2.43-.14-3.53.53-.76.16-1.54-.02-2.2.42-1.77.22-3.16,0-4.83-.36-1.03-.33-2.09-.16-3.15.26-.93-.04-1.76-.3-2.46.57-.97.59-1.9-.18-2.92.45-1.14.86-2.31.47-3.59l.45-11.86c-.25-.45-.54-1.04.04-1.89-.53-.56-.52-1.28.12-1.76-.62-.74-.81-1.73-.09-2.55-.22-.7-.26-1.43-.06-2.18l.04-2.79c-.29-.24-.32-.59.15-.81-.34-.69-.31-1.28.12-1.93-.69-.88-.33-1.56-.44-2.33.28-1.68.25-3.42-.63-4.84.63-.82.59-1.56.83-2.44-.19-1.07-.28-2.06-.08-3.16.2-.95.24-1.81-.18-2.76.31-.5.45-1.17.05-1.91.37-.95.19-1.76,0-2.44l.14-3.53c.23-.95-.02-1.95-.04-2.97l.04-5.51c.03-.59-.36-1.24.22-1.95-.36-1.05-.45-1.98-.38-3.11-.23-.54-.15-1.07.14-1.56-.34-1.21-.37-1.94-.19-3.48-1.17.33-1.78.42-2.76.12-.79.21-1.5.14-2.09-.55-.74.47-1.27.63-1.98.59-.25-.39-.68-.38-.9.09.25.59.26,1.06.12,1.5-.34.55-.26,1.15.11,1.65-.43.57-.47,1.02-.24,1.67-.45.7-.46,1.38.1,2.09l-1.07,1.61.72.77c.22.56.17,1.06-.53,1.5.33.41.8.76.81,1.44.44.91.42,1.86-.55,2.54.32,1.86.47,3.5.27,5.32l.26,7.17c-.23.58-.14,1.15.15,1.57-.58.44-.44.98-.11,1.39-.16,1.07.15,1.93-.4,3.09.34.97.46,1.86.22,2.92.35.26.36.63-.03.88l.35,3.87c-.54.37-.27.96.25,1.1l-.62.92c.09.2.25.44.58.75l-.6,2.12c.41-.07.66.02.84.28-.06.18-.23.45-.55.65-.46.58-.51,1.23.12,1.86-.35.7-.45,1.28-.06,1.85-.38.37-.48.68-.57.92.05.3.1.6.61,1.01-.36.26-.71.79-.21,1.38-.19,1.43-.28,2.71-.03,4.24-.42.81-.6,1.67-.04,2.62-.42.69-.36,1.37.1,2.02-.62.54-.55,1.17,0,1.65-.38.71-.47,1.33-.16,2.12-.41,1.05-.45,2.05-.1,3.12-.17.94-.05,1.74.17,2.62-.5.55-.41,1.12-.05,1.59l-.05,4.23-.18,11.61c-.27.99-.13,1.82.71,2.72-.8.84-1.1,1.89-.47,3.13-.23.67-.33,1.32.22,2.09-.52.56-.49,1.2.09,1.71-.4.56-.42,1.17-.4,1.95.15,1.47.29,2.71-.18,4.24.45.47.45,1.05-.06,1.5l.34,3.76c-.44.42-.58,1.06.12,1.57-.66.71-.59,1.4,0,2.05-.64.77-.59,1.46-.06,2.21-.51,1-.68,2.06.08,3.14-.51.72-.33,1.47.22,1.95-.28.58-.42.8-.55.94-.06.33,0,.66.45.91-.34.77-.36,1.52-.22,2.5-.53.46-.59,1.1.07,1.62-.56.61-.68,1.35-.04,2.08-.52,1.39-.54,2.74-.18,4.19-.3.75-.19,1.4.17,2.08-.59.74-.58,1.44-.13,2.14-.6,1.1-.33,2.08-.29,3.14l.09,12.68c0,1.48.06,2.83-.33,4.26.36.6.5,1.2.19,1.89-.53.51-.51,1.3.15,1.87-.23.8-.36,1.47-.02,2.18l.02,8.77-.1,5.59c-.44.55-.19,1.18.1,1.55-.51.66-.33,1.26.06,1.81.13.72.04,1.23-.44,1.73-.2.52-.03,1.08.29,1.56l.09,13.07-.02,3.16-.24,5.52c.33.64.22,1.44.4,2.43l-.47,2.92c.43,1.13.22,2.17.28,3.34-.39.88-.32,1.73-.02,2.45-.2,1.36-.51,2.43-.18,4.04-.07.46-.45,1.3.02,1.85l.28,5.91c-.4.61-.62,1.34-.27,1.98l-.17,3.37c-.56,0-.8,0-1.18.15-.17.08-.61.55-.04,1.01.61-.27.95-.01,1.08.13.1.28.12.7-.42,1.01.75.53,1.07,1.55.71,2.56-.56.51-1.17.3-1.56-.13-.42.45-.72.46-1.21.31-.34-.25-.64-.41-.88-.48-.32-.02-.68.1-.9.52-.65.3-1.24.23-1.97.21l-3.71-.17c-1.09.38-2.02.3-3.12-.05-.04-.41-.16-.74-.32-.98-.43-.22-1.08.06-1.07.86-.94.07-1.65.22-2.5.62l-3.07-.22c-.43-.62-1.16-.69-1.64-.28-.8.85-2.12.8-2.93,0l-3.27.1c-.54.51-1.19.56-1.79.14l-.67.3c-.4.14-.91.02-1.16-.67l-2.82.41c-.53-.3-.52-.95-.07-1.33.13-.76.02-1.32-.31-1.98l-.21-4.25c-.12-.73-.28-1.39.06-2.08-.32-.73-.27-1.36-.03-2.16.22-.61.25-1.21-.23-1.71l.12-3.18c-.26-.62-.12-1.24.19-1.72-.51-.39-.26-.8-.04-1.02-.38-.62-.42-1.13-.09-1.83-.48-.95-.51-1.93.05-2.82-.36-1.63-.21-3.21-.14-4.87l-.11-16.83c.33-.57.26-1.23-.21-1.83.41-.78.5-1.39.2-2.1l.1-9.1-.07-16.2c-.42-.43-.55-1.06-.02-1.57l.07-4.75c-.03-.92.03-1.75.32-2.6-.47-1.31-.37-2.44-.03-3.67-.5-1.24-.42-2.45-.29-3.73l-.12-7.92.17-5.8c-.32-1.96-.23-3.83-.04-5.77l.04-9.37.03-9.33c.15-.49.39-1.03.28-1.93-.27-.44-.43-.91-.41-1.51.4-.94.35-1.79-.58-2.68.69-.65.89-1.25.68-2.11.34-.7.36-1.37-.03-2.08.55-.96.23-1.77-.04-2.43.23-1.36,0-2.53-.23-3.94l.16-2.61.1-6.33c-.23-.77-.02-1.41.12-1.9l-.14-8.66c-.13-1.25-.06-2.42.1-3.5l-.18-16.51-.11-6.19c-.71-.07-.67-.83.03-.86l.19-12.29c.35-1.45-.07-2.9-.25-4.34l.12-7.43.2-5.98.23-3.61c-.21-.66-.53-1.5-.09-2.16.44-.64.26-1.46-.32-2.1.71-1.26.58-2.67.03-3.86.63-.75.31-1.52.08-2.07l-.11-4.57c-1.23.12-2.12.13-3.23-.08-.72.4-1.38.37-2.07.15-.76.44-1.29.52-2.18.48.1,1.28.04,2.1-.17,3.24.31,1.08.33,2.04.19,3.19.33.65.22,1.29-.47,1.73.61.66.75,1.49.39,2.45.39,1.11.29,2.09-.03,3.15.4.78.29,1.47-.25,2.12.61.91.61,1.69.24,2.53-.31.19-.34.59.05.77.26,1.36.2,2.63-.13,4.1.26.71.29,1.29.24,2,.57.09.57.62.07.78l-.07,8.81-.18,6.32.09,6.83c-.3.77-.4,1.56-.11,2.3l.3,9.32-.12,6.84.08,16.36-.51.77c.09.19.19.42.56.81-.36.72-.37,1.36-.04,2.08-.3.76-.25,1.38-.08,2.11.13,1.3.12,2.43-.16,3.7.31,1.1.3,2.07.03,3.17.2.74.19,1.39-.05,2.11.24,1.46.3,2.77-.08,4.21.53.96.25,1.8-.15,2.38.79,1.48.66,2.93.36,4.46.29.58.26,1.04-.11,1.64.74.65.79,1.53.24,2.22l-.18,2.41c-.65.7-.82,1.6.12,2.36l-.73.87c.63.95.69,1.76.26,2.71.4.61.65,1.22.43,2.05.33.52.32,1.05-.05,1.59.08,1.24.35,2.43-.23,3.64.23,1.09.16,2.25-1.09,3.08.58.61.91.61,1.11.7.23.4.31.9.04,1.53.46.66.31,1.26-.15,1.71.46,1.38.52,2.81.02,4.3.22.52.31,1.21-.09,1.9.39.85.5,1.66.36,2.63l.02,3.68-.25,9.01-.6.75c.09.19.24.43.58.75-.19,1.61-.06,2.96.14,4.43l.08,4.98c-.35.7-.17,1.39.07,2.04-.46.65-.32,1.22.03,1.75-.4.94-.37,1.77-.06,2.68.11.94-.27,1.74-.41,2.54l.43,3.75.21,20.03c-.51,1.07-.31,2.14-.03,3.13l-.14,2.67v3.72s-.21,5.63-.21,5.63l-.14,4.69c.32.26.33.66-.16.88.25.64.28,1.24,0,1.93l-.03,3.56c-.53.7-.26,1.43-.03,2.05-.51.47-.3.93.11,1.25l.1,6.18c.37.6-.09,1.39-.6,1.89.48.63.59,1.2.49,1.7-.39.77-1.21,1.19-2.13.54-.99.46-1.76.18-2.32-.85l-1.26,1.43-2.42-.66c.17-.74-.03-1.01-.1-1.22-.46-.11-1,.09-1.09.8-.43.57-1.05-.13-.4-.47.49-.5-.06-1.09-.62-.67-.28.46-.67.64-1.21.39-.62.32-.84.71-.69,1.39-.67.05-.99-.06-1.52-.48-.69.23-1.15-.17-.92-.95.68-.2,1.36.07,1.91.67.57-1.01-.29-1.45-.91-1.25-.92-.25-1.48.27-1.85.94-.12.5-.62.87-1.12.25-.37.51-.97.92-1.89.36-.42.4-.92.67-1.54.49-1.36.18-2.62.24-3.87-.22-.29-.33-.32-.67.16-.95.57.41,1.03.21,1.27-.15-.56-.39-.85-.27-1.2-.21-.17-.84-1.04-.82-1.26-.16-.16.29-.45.55-.99.4-.21-.65-.8-.83-1.23-.28.27.71.04,1.17-.24,1.4-.42.29-1.07.18-1.35-.23-.56.79-1.27-.07-.68-.6-.16-.8-1.01-.72-1.21-.09l-.61.68c-.41-.23-.63-.55-.76-.89-.02-.35-.02-.67.32-1.25-.72-.34-1.13.06-1.35.69-.31,1.3-1.36,2.15-2.64,1.88-.16-.52-.13-.93.04-1.35.25-.41.15-.87-.44-1.16.61-1.17.65-1.94.36-3.03.61-.37.57-1.01.04-1.37l.28-2.42c-.49-.39-.73-1.04-.25-1.69-.27-1.27-.15-2.44.11-3.47l-.43-9.68-.18-5.35c-.46-.58-.64-1.27-.26-2.02-.53-.87-.48-1.82.07-2.61.32-1.29.28-2.35.19-3.5l.09-8.33.09-11.92c.35-1.06.05-2.1,0-3.11l.29-5.36c-.47-.68-.67-1.38-.28-2.08l.04-8.93c.22-1.42.26-2.79.1-4.21l.3-5.52c-.27-.64-.59-1.46-.15-2.39l-.2-3.17.33-3.88-.23-14.01c-.22-.92-.17-1.72-.09-2.67-.5-.65-.54-1.45.12-2.07l-.1-2.1c.43-.57.44-1.2.15-1.78l-.25-7.74-.05-9.48c.52-.89.4-1.8-.05-2.61l-.02-6.34c.45-.94.15-1.81-.18-2.42.59-1.69.48-3.23.25-4.99.36-.69.34-1.38.02-2.06l-.03-8.46.18-12.13.15-13.69c.08-1.72.34-3.28-.02-4.92.24-.91.33-1.96-.15-3,.47-2.31.38-4.49.11-6.84.17-1.45.12-2.79-.24-4.2.41-.93.29-1.78-.18-2.63.16-.6.17-1.04.12-1.61.33-1.53.64-2.94.27-4.39l.29-10.4c-.37-1.73-.32-3.46.05-5.19l-.4-10.59.04-6.31.15-7.38v-7.21c.26-1.61.06-3.21-.07-4.91l.3-2.48c-.46-.54-.46-1.12-.23-1.73-.28-1.18-.11-2.15.47-3.13-.48-1.17-.43-2.14-.18-3.18-.38-1.66-.28-3.15-.09-4.77-.32-.69-.43-1.29-.44-2.16.12-.85.33-1.71-.07-2.6-.3-1.64-.02-3.22.5-4.77-.27-1,.21-1.74.96-2,.4.26.65.27,1.17.29.35-.45.85-.7,1.52-.5.29-.48.66-.59,1.21-.39.54.22,1.02.24,1.58-.19l2.41,1.06,4.71-1.31c.36.36.91.5,1.57.54.49-.06,1.02-.38,1.56-1.26,1.05,1.26,2.65,2.01,4.49,1.5.79.35,1.45.01,1.87-.31.58.76,1.28.45,1.71-.04,1.05.39,1.78.44,2.79.34,1.39.29,2.76.33,4.15,0,.61.38,1.13.18,1.57.06l5.84.23c.52-.39,1.14-.22,1.57.29.65-.74,1.39-.65,1.85.17,1.4-.57,2.86-.65,4.46-.38.88-.23,1.49-.34,2.13-.91l2.49,1.19c.25-.23.44-.32.73-.45l1.37.23c.45.28.88.11,1.15-.35.82.34,1.19-.11,1.48-.41.63.24.83.36,1.23.77.96-.52,1.76-.45,2.61.06.83-.37,1.32-.31,2.22-.27.44.32.97.47,1.52-.06l2.6.09c.35-.38.65-.42.82-.48.2.1.42.24.83.7.71-.42,1.32-.54,2.12-.15l.76-.68c.19.06.5.16.89.46.22.47.7.6,1.07.27.46-.12.9-.11,1.44.09,1.08-.7,2.12-.23,2.75.64.87.29,1.64,0,2.1-.88.59-.08.97.05,1.47.71.51-.71.91-.73,1.42-.59.34.32.69.43,1.24.4.67-.37,1.29-.5,2.1-.44.47-.38.98-.11,1.11.35.48.16.83.08,1.16-.37.69.06,1.45.31,2.08.12.38-.39.83-.31,1.12-.24.18-.09.45-.3.66-.69.25-.39.65-.38.89.01l.62.85c.42.09.8.04,1.28-.23.67.76,1.4.68,2.06.37,1.07.33,1.48.73,1.91,1.28l.3-.24ZM397.84,58.38l.75-.3c-.84-1.13-1.27-.19-.75.3ZM402.02,59.47c-.9-1.03-1.47-.67-1.71-.52.5,1.11,1.33.96,1.71.52ZM403.81,62.05c.94,0,.86-1.05.18-1.19-.61.11-1.01-.72-.29-1.04.81-.58-.16-1.65-.81-.81-.59.48-.6,1.14-.05,1.49.18.66.08,1.27-.56,1.88.71.24,1.01,0,1.54-.33ZM405.43,59.01c0-.25-.21-.46-.46-.46s-.46.21-.46.46.21.46.46.46.46-.21.46-.46ZM397.58,62.43c.61.04.94-.57.42-1.05.33-.85.44-1.55-.51-2.43-.52.86-1.14,1.38-2.14,1.76-.41.25-.38.69.13.81.91-.36,1.67-.18,2.11.91ZM419.1,60.88c.45-.56.11-.94-.1-1.08-.29-.17-.71,0-.79.34l.89.75ZM407.92,61.39l-.26.26.26.26.26-.26-.26-.26ZM401.2,62.97c.27-.42-.26-.83-.64-.54l-.82.82c.32.31.88.43,1.46-.28ZM411.68,63.49c-.34,0-.44.4-.08.53l.08-.53ZM403.44,64.47c-.64-1.06-1.65-.04-.6.59l.6-.59ZM412.15,64.03l-.07.56c.34-.02.44-.43.07-.56ZM403.65,65.47c.08.47.69.88,1.09.15,1.15.27,1.15-1.34.03-1.09-.34.59-.81.61-1.06.56l-.05.38ZM413.07,67.36c.62-1.16-.35-1.92-1.01-2.2-1.1-.2-2,.32-1.8,1.36l1.31-.31,1.5,1.15ZM416.4,67.16c.75-.65-.15-1.56-.8-.8.24.34.47.56.8.8ZM400.64,67.72c-.51-.61-.9-.56-1.15-.54-.29.16-.4.5-.27.8.17.21.5.44,1.1.21.35.16.6-.22.32-.47ZM419.52,68.24l-.26.26.26.26.26-.26-.26-.26ZM403.18,68.77l-.26.26v.53l.26.26.26-.26v-.53l-.26-.26ZM401.33,70.27c-.07-.6-.94-.78-1.2.06.15.45.7.72,1.2-.06ZM407.65,70.17c-.94-.61-1.69-.4-2.52-.28-.27.62-.17,1.22.18,1.56.73-1.06,1.23-1.14,2.35-1.28ZM406.07,73.42c-.1-.42-.54-.85-.95-.95-.44.75.2,1.4.95.95ZM402.31,75.11c.86-.21.53-1.37-.39-.76-.64-.42-.86-.89-1.1-1.23-.91-.1-1.06.35-1.14.65-.13.31.12.81.71.55.44.41.8.88,1.93.79ZM399.28,73.94c-.1-.54-.96-.79-1.27.08.17.42.71.73,1.27-.08ZM408.16,75.07c.09-.5-.49-.73-.77-.51-.22.15-.53.51-.12,1.05l.89-.55ZM398.99,78.17c.35-.36-.28-1.21-.78-1.12-.82.21-1.01,1.13-.06,1.45l-1.14,1.33c1.23.21,1.62-.58,1.99-1.66ZM401.6,77.73l-.26.26.26.26.26-.26-.26-.26ZM406.87,77.73l-.26.26.26.26.26-.26-.26-.26ZM401.07,81.42l-.26.26.26.26.26-.26-.26-.26ZM401.89,82.24c.65.75,1.56-.15.8-.8-.34.24-.56.47-.8.8ZM409.18,82.92c-1.06.34-1.36.02-1.71-.44-.33.07-.52.49-.34.78.15.2.51.53,1.11.11.4.49,1.12.15.93-.45ZM403.46,83.96c.75.44,1.4-.2.95-.95-.42.1-.85.54-.95.95ZM308.3,86.16l-.26.26.26.26.26-.26-.26-.26ZM410.56,92.49l-.26.26v.53l.26.26.26-.26v-.53l-.26-.26ZM412.67,93.54l-.26.26v.53l.26.26.26-.26v-.53l-.26-.26ZM417.18,109.13c.65.75,1.56-.15.8-.8-.34.24-.56.47-.8.8ZM388.95,159.96l-.26.26.26.26.26-.26-.26-.26ZM422.03,161.68c-.59-.84-.79-1.07-.98-1.17-.96.67-.94,1.56-.32,2.2.78-.18,1.24-.77,1.31-1.03ZM401.6,161.54l-.26.26.26.26h.53l.26-.26-.26-.26h-.53ZM422.05,165.15c-.71-.87-1.59-.56-1.9.08.43.85,1.57.83,1.9-.08ZM420.75,166.72l-.66,2.14,1.12.35.66-2.14-1.12-.35ZM390,213.72l-.26.26.26.26.26-.26-.26-.26ZM420.58,219.52l-.26.26.26.26.26-.26-.26-.26ZM421.1,245.35l-.26.26.26.26.26-.26-.26-.26ZM421.1,250.62l-.26.26.26.26.26-.26-.26-.26ZM374.19,330.74l-.26.26v.53l.26.26.26-.26v-.53l-.26-.26ZM376.82,331.27l-.26.26.26.26.45-.26-.45-.26ZM375.77,338.65l-.26.26.26.26.26-.26-.26-.26ZM300.92,341.29l-.26.26.26.26.26-.26-.26-.26ZM305.1,345.52c.99-.53.62-1.32.52-1.6-.4-.8-1.16-.85-1.63-.08.57.64.78.98,1.11,1.68ZM375.77,343.4l-.26.26.26.26.26-.26-.26-.26ZM307.77,344.45l-.26.26v.53l.26.26.26-.26v-.53l-.26-.26ZM301.65,346.25c1.06.87,1.94-.4,1.62-1.05l-2.37.18c-.4.33-.03.93.75.87ZM371.55,346.03l-.26.26.26.26h.53l.26-.26-.26-.26h-.53ZM306.19,347.61l-.26.26.26.26.26-.26-.26-.26ZM307.25,347.61l-.26.26.26.26h.53l.26-.26-.26-.26h-.53ZM373.86,347.49l-.6,1.66,1.3.47.6-1.66-1.3-.47ZM303.56,348.67l-.26.26v.53l.26.26.26-.26v-.53l-.26-.26ZM318.31,348.67l-.26.26.26.26.26-.26-.26-.26ZM299.87,349.19l-.26.26.26.26h.53l.26-.26-.26-.26h-.53ZM370.5,349.19l-.26.26.26.26.26-.26-.26-.26ZM313.82,349.7c-.99-.44-1.3.82-.11.63.58.16.78-.56.11-.63ZM359.43,349.72l-.26.26.26.26h.53l.26-.26-.26-.26h-.53ZM410.56,350.25l-.26.26v.53l.26.26.26-.26v-.53l-.26-.26ZM413.2,350.77l-.26.26.26.26.26-.26-.26-.26Z"/>
  <path d="M130.11,351.86c-.46-.28-1-.03-1.24.73-1.08-.64-1.61-.75-2.65-.7-.23-.54-.61-.55-.79-.56-.28.05-.56.25-.6.69-1.16.93-2.61,1.01-3.83.03-.88.35-1.42,0-1.86-.75-.6.83-1.33,1.19-2.46.97-.4.05-.74-.17-1-.6-.58.53-.96.61-1.65.46-.59.48-1.29.46-1.77-.29-.59.64-1.58.57-2.14.02-.62.65-1.24.38-1.63.1-.96.53-1.84.45-2.82.33l-9.56.06c-.42.08-.81.22-1.27.12-.13-.07-.45-.27-.74-.75l.05-6.22c-.55-.47-.48-1.12-.02-1.55-.29-1.71-.36-3.07-.06-4.83-.44-.45-.55-1,.01-1.53-.31-.75-.26-1.41.15-2.09-.29-1.5-.4-2.74-.04-4.24-.34-.67-.49-1.37-.05-2.15-.15-.83-.28-1.67-.07-2.58-.28-1.26-.19-2.44-.02-3.67l-.19-7.4.13-13.7-.1-10.54-.04-6.32.17-2.13-.23-3.73c.22-.86.24-1.71-.2-2.37.57-.63.48-1.32.02-1.93.55-1.12.37-2.35.05-3.53.39-1.57.29-2.99-.04-4.63.45-.43.57-1.07.11-1.55l.03-6.68c-.2-1.48-.2-2.92,0-4.45v-3.27c-.32-.76-.1-1.43.2-1.9-.49-.61-.31-1.18-.08-1.6-.32-.69-.31-1.3-.08-1.97l-.1-2.76c.26-.62.09-1.19.01-1.77l.05-6.03.02-4.38c-.05-1.23-.21-2.42.13-3.66-.41-.6-.21-1.15-.12-1.56l-.17-4.8c.36-.39.22-.84,0-1.21l-.06-7.91c.35-.67.43-1.38-.05-2.1.44-.54.39-1.04.12-1.58l.2-6.03c-.29-.68-.3-1.5.05-2.17-.34-.93-.29-1.78-.11-2.69l.04-5.15c-.17-1.43-.08-2.85-.04-4.29l-.18-11.31c.25-1.24.37-2.41-.04-3.61.35-.56.34-1.03.27-1.59-.18-.96-.24-1.75.52-2.74-.53-.8-.64-1.62-.31-2.55-.34-.54-.4-.99-.39-1.58.32-1.18.44-2.23,0-3.46.49-.67.71-1.6-.08-2.54.41-.42.58-1.05.03-1.62.44-.68.57-1.44.38-2.45-.19-.88-.39-1.69.15-2.68-.17-.61-.31-1.31.08-2.08-.33-1.2-.48-2.38-.08-3.67-.3-.69-.4-1.34.03-2.12-.29-.84-.42-1.71-.06-2.64-.27-2.3-.46-4.48-.03-6.8-.45-.57-.48-1.19-.17-1.76.18-1.06.27-2.17-.21-3.21l-.02-4.03c-.57-.47-.47-1.14.03-1.54l-.3-4.26c.18-1.62.17-3.1-.15-4.76.39-.67.48-1.31.09-2.12.36-.46.39-.89.28-1.29-.15-.16-.56-.47-1.17-.12l-.77-.55-.77.43-4.32.07c.11,1.59-.24,3.04-.49,4.62-.17,2.55-.39,4.89.19,7.39-.46.82-.06,1.48.19,1.86-.13,1.1.12,1.88-.33,2.89.31,1.83.19,3.49-.18,5.27v4.23c.12,1.32.02,2.42-.68,3.75.94,1.09.87,2.35.5,3.68-.21.61-.25,1.14.28,1.71l-.36.67c-.05.42.13.83.57,1.19-.36,1.57-.16,2.84.08,4.25-.46,1.13-.22,2.14-.2,3.18l.06,6.34c-.35.72-.2,1.41.07,2.09-.44.77-.38,1.42-.03,2.11l-.48,4.41c-.27.74-.2,1.55-.19,2.36.49.24.62.72.36,1.15.25,2.71.14,5.2.13,7.92.05.89-.05,1.74.25,2.62l-.29,4.58c-.41.56-.25,1.2.1,1.74l-.14,6.9c.21,1.6.24,3.09-.05,4.67-.2,1.29-.28,2.44.37,3.72l-.78.81c-.17.54-.03,1.07.51,1.41.24.66.23,1.27.08,1.98l.03,4.24c-.34.83.02,1.46.43,1.84-.63,1.18-.59,2.22-.28,3.47-.33.67-.42,1.32-.2,2.08.19.84.07,1.43-.73,2.13.71.49.88,1.15.25,1.81.23.24.56.71.43,1.32l.03,7.39-.04,4.76c.33,1.07.25,2.09-.06,3.11l.07,5.8c-.42.29-.74.53-.97.98.62.31.83.63.94.96.07.39-.1.77-.36.99.58.62.5,1.13.48,1.88-.27.97-.44,1.86-.2,2.78.4,1.12.35,2.27-.08,3.51.48.72.44,1.4.15,2.08.33,1.18.2,2.11-.16,3.17.82.64.43,1.41-.04,1.71.06.96,0,1.66.43,2.57l.09,6.3-.83,1.57c.85.96.85,2.03.35,3.17.44.79.43,1.54-.47,2.16.54.89.81,1.55.88,2.62-.77.62-.65,1.43-.1,1.99l-.06,10.11c.1,3.38.26,6.61-.21,10.01l.4,1.1c-.36.29-.48.55-.54.74l.51.73c-.16,1.18-.32,2.14-.14,3.22l-.02,8.96c.17.77-.04,1.38-.4,1.92.68.56.63,1.38.03,1.9.6,2.37.69,4.7.21,7.26.41,1.04.39,2.07.18,3.13l-.02,5.82c.22.53,0,1.12-.22,1.49.59.7.4,1.15.35,1.61.14,1.03.18,1.68.89,2.45-.6.53-1.19,1.27-.78,2.36.06.98-.13,1.86-.59,2.8-.93-.43-1.45-.33-2.23-.12-.89.51-1.71.56-2.4.11l-2.2.1-3.31.16c-.63.03-1.09-.05-1.55-.65-.77.46-1.42.43-2.13-.03-.84.54-1.48.49-2.37.61-.62-.26-1.44-.55-2.37-.27-1.3-.37-2.41-.14-3.7.21-.8-.41-1.65-.5-2.39.23-.34-.41-.99-.86-1.85-.38-.71-.28-1.32-.28-2.1.03-.77-.91-1.81-.8-2.6-.07l-3.2-.22c-.67.06-1.24-.14-1.4-.27-.54-.47-.54-1.13,0-1.72-.54-1.04-.41-2.06.31-2.72.76.35.81-.69.11-.53-.66-.12-.92-.91-.5-1.49-.32-.98-.26-1.75,0-2.62l-.2-3.22c-.24-1.28-.39-2.43.05-3.7-.3-.56-.44-1.12-.04-1.77-.26-.37-.4-.98-.04-1.53l-.09-12.32c-.05-1.06.27-2.13-.09-3.32.44-.94.22-1.76-.08-2.45.41-.92.6-1.82.2-2.85.18-1.24.11-2.42-.22-3.53.46-.72.51-1.39.34-2.26-.2-.71-.28-1.37.14-2.11-.39-1.93-.36-3.72-.33-5.61l-.14-7c.3-.68.38-1.37.24-2.12l-.03-9.57c-.08-1.21-.26-2.36.25-3.58-.47-.6-.46-1.19-.23-1.77l.15-5.15-.16-1.92c-.26-.43-.14-.85.31-1.19-.4-2.22-.28-4.17-.17-6.32l-.18-5.34c.13-.88.15-1.73-.14-2.39.32-.78.03-1.52-.23-2.25.69-.72.65-1.42.26-2.14.37-1.3.35-2.45.14-3.7l-.08-4.01.07-7.44.08-5.39c-.24-.75-.24-1.44-.02-2.19l-.09-3.49.12-12.64c-.51-.58-.53-1.35.05-1.88.23-.66-.03-1.3-.36-1.74.41-.62.39-1.18.22-1.81.51-1.86-.07-3.52-.19-5.23l.28-11.14-.19-4.36.11-6.53-.1-5.62c.24-.87.27-1.87,0-2.97.58-.78.25-1.42-.03-1.84l.13-4.14-.44-1.91c.31-1.67.32-3.1.16-4.64.39-.21.38-.55.13-.81l.12-6.34c-.11-.59-.13-1.26.08-1.96v-11.05s-.2-5.09-.2-5.09c.24-1.01.2-1.97-.02-3.01.28-.5.34-1.14.2-1.89l.04-3.7-.21-4.99c.06-.66.37-1.34-.07-2.11.25-.48.39-1.18-.25-1.87.52-.45.16-.94-.17-.95-.21-.02-.56-.06-.91.35-.58-.34-1.26-.37-1.94,0-.92-.36-1.7-.4-2.71.07-.41-.38-.85-.66-1.54-.45.26,1.44.25,2.7.07,4.14l.07,6.88c-.04,1.06-.12,2.08-.04,3.14l.12,6.32c-.51.73-.28,1.47.07,2.06l-.05,4.81c-.41.51-.34,1.1.1,1.58-.31,1.31-.46,2.38-.18,3.73-.17.86-.26,1.69.1,2.61-.17,1.22-.28,2.36.1,3.52-.23,1.6-.13,3.15.27,4.89l-.5.81c.18.34.49.61.9.91-.11.52-.48.52-.71.41-.11.26-.25.47-.2,1.1.44,0,.73.12.93.25.24.4.08,1.06-.86,1.18.58.96.35,1.63-.33,2.16l.09,3.87c.45.46.67,1.29,0,1.92.59.61.46,1.11.24,1.66l-.05,2.64c-.07,1.05-.38,2.04-.01,3.18,0,1-.26,2.05.08,3.01.29.83-.07,1.78-.13,2.71.39,1.88.05,3.51-.14,5.29-.1,1.67-.19,3.1.22,4.79-.25.33-.41.57-.48.76.05.18.15.46.46.79.13.75.14,1.37-.14,2.14.24,1.75.53,3.37.19,5.07.6.87.4,1.92-.05,2.56.45.65.27,1.28-.23,1.78.43,2.1-.03,3.88-.29,5.6l.64,4.99-.25,4.79c.32.67.37,1.37-.15,2.04l.32,2.78c-.28.73-.52,1.65.06,2.53-.15,2.15-.4,4.16.07,6.3-.36.9-.25,1.75-.19,2.61l-.24,7.93c.27.44.12.92-.3,1.23.41.54.54,1.18.17,1.91.48,1.14.3,2.14-.14,2.98,1.03,1.25.75,2.65.02,3.82.41,1.27.33,2.45.28,3.75l.27,12.12-.14,6.34c.24.5.06.99-.5,1.24.59.71.81,1.5.18,2.46.56,1.21.69,2.27.6,3.5l.03,3.18-.26,3.86-.19,5.27.23,5.83c-.07,1.57-.32,3.07-.02,4.71-.33.71-.3,1.39.03,2.08-.4,1.28-.29,2.45-.09,3.7l-.02,5.31c.28.7.3,1.36-.14,2.08.43.74.39,1.4.1,2.09l.14,5.82-.14,6.36c.09,1.23.19,2.46-.34,3.44.44,1.06.32,2.03.04,3.04.27,1.44.59,2.89.23,4.59.37.89.43,1.71-.15,2.56.46.58.45,1.06.17,1.64.6.65.62,1.4.06,2.11.21.66.1,1.22-.2,1.57-.37.46-.98.76-1.86.56-.84-.53-1.77-.56-2.64-.06-.68-.19-1.25-.04-1.7.39-.8-.12-1.34.16-1.94.65-1.04-.65-1.99-.8-3.06-.5-.39-.6-.98-.52-1.35-.17-.46.08-.91.03-1.37-.1-.91.46-1.47.08-2.16-.27-1.01-.74-2.14-.82-3.12.08-.83-.08-1.48.03-2.21.57-1.32-.72-2.64-.89-4.16-.67-.72.14-1.35.11-1.97,0-.37.9-1.08.86-1.69.45-.73-.12-1.02-.65-1.16-1.62-.48.51-.84.79-1.51.67l-2.63-.1c-2.38.17-4.51.09-6.82-.43l-.02-6.22c.58-.07.59-.67.01-.75v-2.9c.73-.35.27-.89-.06-1.09l.05-12.12c.57-.08.6-.69,0-.78v-7.65c.6-.1.58-.7,0-.79v-17.62c.75-.26.76-1.12,0-1.37v-14.45c.75-.23.77-1.07.05-1.31v-1.92c.72-.2.72-1.05-.02-1.25l-.1-3.2c.37-.3.7-.75.61-1.18.1-.43-.23-.9-.63-1.16l.16-1.64c.54-.12.51-.69-.06-.77v-21.32c.58-.09.6-.7,0-.8v-7.65c.59-.08.59-.69,0-.78v-7.65c.59-.09.59-.7,0-.78v-9.76c.58-.08.6-.68,0-.78v-4.48c.75-.28.32-1-.22-.98.3-.79.53-.81.73-1.01-.22-.16-.47-.41-.57-.71l-.04-3.9c.41-.31.71-.76.62-1.19.06-.45-.24-.82-.56-1.29l.02-35.19c.59-.13.59-.72,0-.84v-29.72c.74-.25.78-1.1,0-1.36v-5.03c.59-.07.59-.68,0-.76v-3.98c.76-.26.72-1.1-.02-1.35v-32.35c.59-.11.6-.71,0-.82v-13.43c.55-.17.63-.59.53-.92-.12-.12-.4-.31-.72-.82.37-.47.63-.68.72-.77.11-.33.02-.75-.53-.9v-6.09c.59-.07.6-.66.04-.75v-1.86c.7-.38.25-.88-.08-1.1l.1-14.16c.53-.04.75-.3.82-.53.03-.24.08-.58-.24-.95.29-.59.96-1.04,1.85-.95.71-.69,1.56-.53,1.99.08,1.44-1.08,3.2-.41,3.7.98-.44.64.22.99.52.84.19-.1.49-.25.78-.73.02-.55-.06-.99-.22-1.56.61-.67,1.16-.55,1.75-.52l1.17-.21c.09-.14.29-.44.66-.77.32-.77,1.39-.42.76.63.65.2,1.3.07,2.05-.08.95.58,1.63.1,2.01-.66.61.72.88,1.07,1.49,1.52.31-.26.65-.33,1.04-.16.74.1,1.14-.06,1.59-.8.43.49.7.76,1.26.96.43-.68,1.08-.76,1.71-.27.46-.09.73.19.86.32.43.04.86-.17,1.17-.68,1.09.61,1.82.29,2.69.23,1.41,0,2.35.13,3.52.95-.22.81-.53,1.1-.89,1.46.69,0,1.01.11,1.33.68.49.5,1.24-.29.34-.71l1.03-1.15c-.69-.21-.48-.68-.31-.79.19-.18.4-.33.84-.54.85.33,1.5,0,1.86-.53.74.98,1.5,1.09,2.37.76.86.24,1.45.87,1.63,1.92.74-.16,1.55.27,1.4,1.28.15.47,1,.52,1.07-.17.09-.43.4-.66.66-.81-.19-.19-.37-.42-.6-.76-.41-.27-.55-.58-.62-.82.04-.42.22-.85.9-1.22.54.62,1.35,1.08,2.22.98.42-.62,1.09-.58,1.55-.27l3.36-.09c.78-.11,1.41-.08,2.07.39.71-.61,1.47-.58,2.14-.01,1.11-.23,2.05-.25,3.17-.19,1.17-.28,2.08.07,2.83,1.3.23-.45.69-.84,1.44-.47.45-.44.88-.65,1.39-.83.34-.36.86-.23,1.13.26.84-.48,1.44-.46,2.2.04.88-.63,1.71-.55,2.64-.35.92.12,1.71.16,2.36-.16l2.87.18c.48.05.93-.11,1.48-.29.61.73,1.45.72,2.14.26.86.51,1.51.25,2.13-.04,2.2.03,4.03.19,5.82,1.41.71-.44,1.29-.47,1.99-.27.85-.7,1.78-.56,2.77-.29,1.31.14,2.39.48,3.69.44.53-.46,1.16-.5,1.74-.12.9-.34,1.62-.23,2.39.18.79-.58,1.42-.39,2.24-.54,1.76.06,3.44.42,5.15-.26l3.29.06c1.13.25,2.2.43,3.24.45,1.56.36,2.95.14,4.72.17.73-.44,1.72-.63,2.48.15.89-.31,1.49.06,1.9.26l3.8-.03c.68-.21,1.51-.01,2.18.12.84.92.72,1.71.62,2.69.05,1.68-.16,3.13.21,4.77-.23.56-.17,1.04.11,1.58-.62.71-.54,1.38-.07,2.09-.67.5-.58,1.16-.05,1.6-.27,2.03-.39,3.82.08,5.8-.34.76-.19,1.35-.19,2.14l.38,1.97c-.61.37-.63,1.01-.04,1.43-.27.53-.48,1.07-.55,1.6.07.71.7,1.31,1.57,1.38.35.48.35.87.23,1.26-.23.14-.49.18-1.31.42.55.38,1.1.75,1.27,1.31-.05,1.44-.44,2.15-1.67,2.82.49.64.54,1.34.04,2.06.3.71.31,1.36-.13,2.08.34.73.35,1.37,0,2.11.38.9.44,1.73-.07,2.67l.45,2.12c-.57.61-.59,1.4.06,2.03-.33,1.18-.32,2.17.17,3.23-.39,1.25-.32,2.37.1,3.51.57.14.68.61.61.93-.02.29-.16.64-.53.93-.44.67-.36,1.4-.48,2.07-.23.77-.24,1.3-.91,2.09.86.68,1.13,1.55.71,2.58.56.75.66,1.38.96,2.33-.03.25-.48.67-.71.9l-.08,2.92c.32.71-.03,1.51-.08,2.19l.13,3.57c.3.51.13,1.03-.12,1.61.61.47.58,1.03-.01,1.49.44.45.76,1.04.35,1.84.22.77.09,1.36.05,2.15-.1.9-.45,1.73-.01,2.63-.52.98-.68,1.92-.42,3.07-.53.22-.68.57-.52,1.09.71.12.67,1.08-.1,1.02-.39.14-.45.95.02,1.15.7.7.74,1.51.86,2.44l.03,5.04c.36.51.22,1.12-.22,1.58.39.67.43,1.38.09,2.13.02.84-.08,1.59-.35,2.46.49.72.44,1.41.04,2.09.41.77.35,1.42.04,2.11.21,1-.09,1.7-1.02,2.38.97.68,1.59,1.59,1.12,2.94.36.91.46,1.64-.12,2.69.67.43.79,1.15.24,1.66l-.27,3.53c.42.64.34,1.3-.42,1.78.69,1.11.72,2.23.13,3.27.68.7.52,1.66-.32,2.25.54.63.63,1.01.73,1.66l.28,11.07c-.25.75-.13,1.46.28,2.12l-.2,2.49c-.26.27-.26.56,0,.83l-.43,4.59c.29.66.16,1.24-.34,1.72.31.48.4,1.04.04,1.6l.24,3.7.25,6.66v11.11s-.53.75-.53.75l.47.75.09,9.53-.08,5.27c-.17,2.48-.45,4.77-.22,7.19-.32.45-.39.98.12,1.47-.46.48-.54,1.28.13,1.86l-.02,8.83c.44.17.44.62.01.8l-.12,4.1c.04,1.49.04,2.7-.54,4.29.35.29.58.73.26,1.17.03,1.76-.29,3.52.21,5.24l.27,6.5c.49.5.58,1.04.06,1.86.99.19.81,1.13.06,1.05-.31,1.08-.38,1.87.01,2.75.48.14.65.42.75.62-.02.43-.17.87-.82,1.23.41,1.07.35,1.84-.16,2.79.21.74.44,1.5.11,2.2l-.23,3.9c-.6.56-.62,1.3,0,1.89-.4.56-.43,1.2,0,1.8-.63.35-.92,1.1-.12,1.76l-.84,1.38c.78.26.83,1.04.07,1.33.39.86.26,1.43.09,2.08.91.27.88.92.76,1.45.15.83.03,1.41-.13,2.15.51,1.13.31,2.14-.21,2.97.72,1.09.52,2.23-.51,2.93,0,.54-.04.88-.32,1.57.6.48.96.82,1.34,1.52l-.43.77.59.7-.58,1.68c.57,1.06.73,1.82.7,3.13-.32.21-.69.54-.75.87-.03.51.18,1.01,1,1.31l-.55.77c-.09.45.17.83.52,1.03-.82.49-.92,1.15-.35,1.91-.8.46-1.33.82-1.78,1.46.2,1.06-.64,1.67-1.63,1.47-.39.1-.65-.17-.76-.28-.22.09-.46.19-.76.63l1.23,1.18c.24.4.7.5,1.09.33.41,0,.86-.35.93-1,.41-.49.83-.52,1.2-.4.28.19.61.66.32,1.29.16.58.18.95-.19,1.59-.46-.25-.97-.08-1.15.4.84-.03,1.02.23,1.15.43.16.36.05.89-.54,1.12.24.64.4.83.7,1.17.05.95.51,1.45,1.01,1.84.11.11.26.21.35.25.44.45-.23.82-.47.38l-.15-.32ZM21.28,56.04c-.07-.6-.94-.78-1.2.06.15.45.7.72,1.2-.06ZM6.79,56.11l-.26.26.26.26h.53l.29-.26-.29-.26h-.53ZM63.19,56.11l-.26.26.26.26h.53l.26-.26-.26-.26h-.53ZM5.21,56.64l-.26.26.26.26.26-.26-.26-.26ZM59.5,56.64l-.26.26v.53l.26.26.26-.26v-.53l-.26-.26ZM68.99,56.64l-.26.26.26.26h.53l.26-.26-.26-.26h-.53ZM18.29,58.14c-.31-.75-1.18-.12-.59.49-.35.69-.04,1,.14,1.17.3.14.64.02.8-.27,0-.27-.08-.58-.36-1.4ZM27.87,58.22l-.26.26.26.26.26-.26-.26-.26ZM56.86,58.22l-.26.26.26.26.26-.26-.26-.26ZM34.89,59.65l-.61-.91c-.37.09-.51.51-.35.8.13.28.59.51.96.11ZM41.54,62.43c1.03-.66,1.3-1.34,1.78-2.37.87-.53-.04-1.79-.76-.76-1.02-.21-1.56.19-1.79,1.12-.55-.34-1.08-.22-1.15.57.74.33,1.31.66,1.92,1.43ZM22.3,60.1c-.58-1.04-1.62-1.22-2.34-.27.77.84,1.82.62,2.34.27ZM25.47,61.26v-1.97c-.34-.09-.59.18-.44.52-.11.42-.37.61-.58.78.18.19.28.5,1.02.67ZM72.15,59.28l-.26.26.26.26.26-.26-.26-.26ZM81.64,59.8l-.26.26.26.26.26-.26-.26-.26ZM56.86,60.33l-.26.26.26.26.26-.26-.26-.26ZM34.69,60.56l-2.02,1.18.78,1.32,2.02-1.18-.78-1.32ZM51.3,61.2c-.1.81.63.85.82.71.29-.16.4-.49.26-.8-.09-.25-.71-.62-1.09.08ZM76.89,60.86l-.26.26.26.26.26-.26-.26-.26ZM37.36,62.44l-.26.26.26.26.26-.26-.26-.26ZM44.45,64.39c.56.45.94.11,1.08-.1.17-.29,0-.71-.34-.79l-.75.89ZM116.95,64.55l-.26.26.26.26.26-.26-.26-.26ZM100.61,66.66l-.26.26.26.26.26-.26-.26-.26ZM31.56,68.24l-.26.26.26.26h.53l.26-.26-.26-.26h-.53ZM101.14,68.24l-.26.26.26.26.26-.26-.26-.26ZM7.84,68.77l-.26.26.26.26.26-.26-.26-.26ZM128.02,69.82l-.26.26.26.26.26-.26-.26-.26ZM63.51,71.93c0-.33-.26-.59-.59-.59s-.59.26-.59.59.26.59.59.59.59-.26.59-.59ZM126.97,78.25l-.26.26.26.26.26-.26-.26-.26ZM5.21,87.74l-.26.26.26.26.26-.26-.26-.26ZM29.98,88.8l-.26.26.26.26.26-.26-.26-.26ZM8.37,89.32l-.26.26.26.26.26-.26-.26-.26ZM15.22,97.76l-.26.26.26.26.26-.26-.26-.26ZM114.85,97.76l-.26.26.26.26.26-.26-.26-.26ZM124.33,102.5l-.26.26.26.26.26-.26-.26-.26ZM23.65,118.84l-.26.26.26.26.26-.26-.26-.26ZM113.5,127.25c.09-.5-.49-.73-.77-.51-.22.15-.53.51-.12,1.05l.89-.55ZM65.82,127.8l-.26.26.26.26.26-.26-.26-.26ZM75.84,139.93l-.26.26.26.26.26-.26-.26-.26ZM122.75,140.45l-.26.26v.53l.26.26.26-.26v-.53l-.26-.26ZM56.66,148.36c0-.33-.26-.59-.59-.59s-.59.26-.59.59.26.59.59.59.59-.26.59-.59ZM104.3,154.16l-.26.26.26.26.26-.26-.26-.26ZM103.78,157.32l-.26.26v.53l.26.26.26-.26v-.53l-.26-.26ZM51.06,171.55l-.26.26.26.26h.53l.26-.26-.26-.26h-.53ZM71.1,173.14l-.26.26.26.26h.53l.26-.26-.26-.26h-.53ZM74.26,228.48l-.26.26.26.26.26-.26-.26-.26ZM75.84,234.28l-.26.26.26.26.26-.26-.26-.26ZM83.22,244.82l-.26.26.26.26h.53l.26-.26-.26-.26h-.53ZM82.69,248.51l-.26.26.26.26.26-.26-.26-.26ZM2.57,252.2l-.26.26.26.26.26-.26-.26-.26ZM81.64,256.95l-.26.26.26.26.26-.26-.26-.26ZM99.56,265.38l-.26.26.26.26.26-.26-.26-.26ZM84.27,265.91l-.26.26.26.26.26-.26-.26-.26ZM112.74,268.02l-.26.26.26.26.26-.26-.26-.26ZM123.28,285.94l-.26.26.26.26h.53l.26-.26-.26-.26h-.53ZM112.21,292.26l-.26.26.26.26.26-.26-.26-.26ZM117.48,292.79l-.26.26.26.26.26-.26-.26-.26ZM5.73,293.32l-.26.26v.53l.26.26.26-.26v-.53l-.26-.26ZM108.69,294.22l-.61-.91c-.37.09-.51.51-.35.8.13.28.59.51.96.11ZM119.59,294.9l-.26.26.26.26.26-.26-.26-.26ZM117.48,296.48l-.26.26.26.26.26-.26-.26-.26ZM111.68,297.01l-.26.26v.53l.26.26.26-.26v-.53l-.26-.26ZM117.74,299.08c.07-1.2-.58-1.36-.96-1.56-.33.86.25,1.47.96,1.56ZM107.47,299.12l-.26.26.26.26.26-.26-.26-.26ZM110.1,300.7l-.26.26.26.26.26-.26-.26-.26ZM64.24,301.23l-.26.26.26.26.26-.26-.26-.26ZM119.59,303.86l-.26.26.26.26.26-.26-.26-.26ZM118.54,305.97l-.26.26.26.26.26-.26-.26-.26ZM124.33,305.97l-.26.26.26.26.26-.26-.26-.26ZM119.59,309.13l-.26.26v.53l.26.26.26-.26v-.53l-.26-.26ZM122.75,309.66l-.26.26.26.26.26-.26-.26-.26ZM113.79,311.24l-.26.26.26.26.26-.26-.26-.26ZM115.9,311.24l-.26.26.26.26.26-.26-.26-.26ZM1.52,312.3l-.26.26.26.26.26-.26-.26-.26ZM107.47,312.82l-.26.26.26.26.26-.26-.26-.26ZM114.31,315.41l.8-1.52c-.65.15-.87.58-1.06.79-.26.47.3.82.26.73ZM116.56,314.78c-.07-.83-.8-.91-1.01-.6-.02.89.16,1.06.34,1.29.19.22,1.02.06.67-.69ZM57.92,314.4l-.26.26.26.26.26-.26-.26-.26ZM5.21,315.98l-.26.26.26.26.26-.26-.26-.26ZM124.33,315.98l-.26.26.26.26.26-.26-.26-.26ZM110.95,319.9c-.66-.2-.9-.26-1.12-.48-.11-.26-.07-.72.46-.89.14-.28.21-.59-.12-1l-1.51,1.57c.48,1.21,1.55,1.43,2.29.8ZM121.5,318.09c0-.33-.26-.59-.59-.59s-.59.26-.59.59.26.59.59.59.59-.26.59-.59ZM124.33,318.09l-.26.26.26.26.26-.26-.26-.26ZM2.04,321.78l-.26.26.26.26.26-.26-.26-.26ZM112.21,322.84l-.26.26.26.26.26-.26-.26-.26ZM115.9,323.89l-.26.26.26.26h.53l.26-.26-.26-.26h-.53ZM121.17,323.89l-.26.26v.53l.26.26.26-.26v-.53l-.26-.26ZM123.81,324.42l-.26.26.26.26.26-.26-.26-.26ZM63.19,328.11l-.26.26.26.26.26-.26-.26-.26ZM107.47,328.11l-.26.26.26.26.26-.26-.26-.26ZM108.52,328.11l-.26.26.26.46.26-.46-.26-.26ZM122.47,328.08c-.99-.44-1.3.82-.11.63.58.16.78-.56.11-.63ZM112.21,328.64l-.26.26.26.26.26-.26-.26-.26ZM117.72,329.14c.09-.5-.49-.73-.77-.51-.22.15-.53.51-.12,1.05l.89-.55ZM109.35,329.93c.2-.55-.3-1.23-1.02-.67.06.45.43.79.71.98l.31-.31ZM120.05,330.22c.34-.08.51-.5.34-.79-.14-.21-.52-.55-1.08-.1l.75.89ZM114.29,329.7c-.8-.24-1.17.14-1.24.27.33.7.79.75,1.02.53.3-.04.64-.52.22-.8ZM109.59,330.19l-.31.32-.41,1.78h1.47c.43-1.05-.05-1.71-.75-2.1ZM124.33,330.74l-.26.26v.53l.26.26.26-.26v-.53l-.26-.26ZM124.51,332.31l-1.94,1.29c-.62-.74-.97-.93-1.57-1.18-.41.44-.23.98.25,1.17.3,1,1.08,1.53,2.27,1.35.04-.54.1-.79.35-1.28.54-.12.99-.65.64-1.35ZM108.38,336.91l-.29-2c.87-.1,1.16-.19,1.78-.48.5.33,1,.14,1.23-.25-.06-.23-.19-.59-.62-1.01-1.08-.33-2.02-.53-3.35-.21.43.45.67.71.55,1.44-.65-.32-1.15.15-.77.71.67.19.96.73.73,1.34-.61.24-.54.95-.15,1.07.21.11.79.07.88-.61ZM112.21,332.85l-.26.26.26.26h.53l.26-.26-.26-.26h-.53ZM115.61,334.5c-.91-.35-.56-1.16.05-1.25-.11-.4-.56-.64-1.03-.29l.03,2.56c.52-.18.89-.61.95-1.02ZM77.95,333.38l-.26.26.26.26h.53l.26-.26-.26-.26h-.53ZM114.18,336.42c-.8.5-1.46-.08-1.17-.88-.75.03-1-.14-1.4-.62-.42.74-.24,1.27.05,1.63.33-.07.63-.04,1.02.37.19.62.9.97,1.38.42.29-.06.77-.55.13-.92ZM111.35,337.83c.1-1.04-.73-1.49-1.48-1.19.18.42.4,1.16,1.48,1.19ZM126.2,337.39c.3.42.71,0,.3-.3l-.3.3ZM127.02,337.58l-.05.55c.71.42,1.08-.72.05-.55ZM110.96,338.21l-1.38.59c-.24,0-.75-.03-.87-.83-.54.03-1.04.33-1.35.86-.24.55.2,1.18.93.76l.79.64c.22.09.71.05.68-.63.82-.24,1.24-.69,1.2-1.39ZM124.56,338.7c-.93,0-1.11-.41-1.28-.55-.18.19-.31.46-.99.65,0,.79.72,1.34,1.42,1.24.6-.02,1.17-.62.85-1.34ZM115.37,338.65l-.26.26v.53l.26.26.26-.26v-.53l-.26-.26ZM119.06,338.65l-.26.26.26.26.26-.26-.26-.26ZM113.53,339.9l-.89-.75c-.45.56-.11.94.1,1.08.29.17.71,0,.79-.34ZM107.47,340.76l-.26.26.26.26h.53l.26-.26-.26-.26h-.53ZM115.7,341.29c0-.33-.26-.59-.59-.59s-.59.26-.59.59.26.59.59.59.59-.26.59-.59ZM25.76,341.29l-.26.26v.53l.26.26.26-.26v-.53l-.26-.26ZM123.65,342.52c1.19-.04.97-.88.96-.97-.16-.29-.5-.4-.8-.26l-.6.93c-1.17.38.04,1.13.44.3ZM23.65,342.87l-.26.26.26.26.26-.26-.26-.26ZM108.05,343.18c.57.61,1.08.86,1.55.15-.86-.79-1.88-.6-2.46-.15-.09.8.08,1.09.55,1.4-.15.7.41,1.24,1.25.89,1.25.43,1.27-1.37.04-1.03-.72.1-1.4-.48-.93-1.25ZM115.37,343.4l-.26.26v.53l.26.26.26-.26v-.53l-.26-.26ZM24.68,344.46c-.8-.24-1.17.14-1.24.27.33.7.79.75,1.02.53.3-.04.64-.52.22-.8ZM29.71,344.9c-.07-.6-.94-.78-1.2.06.15.45.7.72,1.2-.06ZM120.64,344.45l-.26.26.26.26.26-.26-.26-.26ZM112.54,349.62c1.23.24,1.24.56,1.71,1.34l2.24-2.19c-.58-1.1-1.06-1.65-1.85-2.35l-1.58.72c-.16-.92-.4-1.26-.98-1.64-.33.86-.01,1.4.41,1.89-.84.69-.97,1.03-1.59,1.99-.35-.52-.82-.78-1.27-.26-.55-.15-1.21-.15-1.6.5l2.26.19c-.02.98.74,1.34,1.4,1.19.47-.03,1-.44.85-1.38ZM119.8,347.49l-.02-2.02c-.53.25-.78.61-.99.84-.03.43.06.99,1.01,1.18ZM126.38,345.87c-.38-.91-1.16-.16-.74.39-.04.12.65.53.74-.39ZM100.39,348.19c-.84-.19-.69-.9-.3-1.12.87-.6-.22-1.62-.71-.74-.63.96-.86,1.85-.26,2.43.81.13,1.15-.2,1.27-.56ZM104.09,347.18c.14-.71-.76-.71-.62,0-.32,1.07.94,1.07.62,0ZM26.29,347.08l-.26.26.26.26.26-.26-.26-.26ZM121.7,347.08l-.26.26.26.26.26-.26-.26-.26ZM83.46,348.12c.09-.5-.49-.73-.77-.51-.22.15-.53.51-.12,1.05l.89-.55ZM84.27,347.61l-.26.26.26.26.26-.26-.26-.26ZM100.85,348.5c.56.45.94.11,1.08-.1.17-.29,0-.71-.34-.79l-.75.89ZM110.1,347.61l-.26.26.26.48.26-.48-.26-.26ZM80.06,348.67l-.26.26.26.26.26-.26-.26-.26ZM37.36,349.19l-.26.26.26.26.26-.26-.26-.26ZM39.47,349.19l-.26.26.26.26.26-.26-.26-.26ZM104.57,350.74c.07-1.2-.58-1.36-.96-1.56-.33.86.25,1.47.96,1.56ZM19.96,349.72l-.26.26.26.26h.53l.26-.26-.26-.26h-.53ZM96.4,349.72l-.26.26.26.26h.53l.26-.26-.26-.26h-.53ZM119.06,349.72l-.26.26.26.26.26-.26-.26-.26ZM121.21,351.28c.75-.65-.15-1.56-.8-.8.24.34.47.56.8.8ZM126.97,350.25l-.26.26.26.26.26-.26-.26-.26ZM13.11,350.77l-.26.26.26.26h.53l.26-.26-.26-.26h-.53Z"/>
</svg>
